<?xml version="1.0" encoding="UTF-8" standalone="no"?>
<!DOCTYPE svg PUBLIC "-//W3C//DTD SVG 1.1//EN"
 "http://www.w3.org/Graphics/SVG/1.1/DTD/svg11.dtd">
<!-- Generated by graphviz version 2.40.1 (20161225.0304)
 -->
<!-- Title: snakemake_dag Pages: 1 -->
<svg width="3992pt" height="260pt"
 viewBox="0.00 0.00 3992.00 260.00" xmlns="http://www.w3.org/2000/svg" xmlns:xlink="http://www.w3.org/1999/xlink">
<g id="graph0" class="graph" transform="scale(1 1) rotate(0) translate(4 256)">
<title>snakemake_dag</title>
<polygon fill="#ffffff" stroke="transparent" points="-4,4 -4,-256 3988,-256 3988,4 -4,4"/>
<!-- 0 -->
<g id="node1" class="node">
<title>0</title>
<path fill="none" stroke="#56d8d8" stroke-width="2" stroke-dasharray="5,2" d="M91,-36C91,-36 29,-36 29,-36 23,-36 17,-30 17,-24 17,-24 17,-12 17,-12 17,-6 23,0 29,0 29,0 91,0 91,0 97,0 103,-6 103,-12 103,-12 103,-24 103,-24 103,-30 97,-36 91,-36"/>
<text text-anchor="middle" x="60" y="-15.5" font-family="sans" font-size="10.00" fill="#000000">salmon_quant</text>
</g>
<!-- 1 -->
<g id="node2" class="node">
<title>1</title>
<path fill="none" stroke="#56d8d8" stroke-width="2" stroke-dasharray="5,2" d="M229,-36C229,-36 167,-36 167,-36 161,-36 155,-30 155,-24 155,-24 155,-12 155,-12 155,-6 161,0 167,0 167,0 229,0 229,0 235,0 241,-6 241,-12 241,-12 241,-24 241,-24 241,-30 235,-36 229,-36"/>
<text text-anchor="middle" x="198" y="-15.5" font-family="sans" font-size="10.00" fill="#000000">salmon_quant</text>
</g>
<!-- 2 -->
<g id="node3" class="node">
<title>2</title>
<path fill="none" stroke="#56d8d8" stroke-width="2" stroke-dasharray="5,2" d="M367,-36C367,-36 305,-36 305,-36 299,-36 293,-30 293,-24 293,-24 293,-12 293,-12 293,-6 299,0 305,0 305,0 367,0 367,0 373,0 379,-6 379,-12 379,-12 379,-24 379,-24 379,-30 373,-36 367,-36"/>
<text text-anchor="middle" x="336" y="-15.5" font-family="sans" font-size="10.00" fill="#000000">salmon_quant</text>
</g>
<!-- 3 -->
<g id="node4" class="node">
<title>3</title>
<path fill="none" stroke="#56d8d8" stroke-width="2" stroke-dasharray="5,2" d="M505,-36C505,-36 443,-36 443,-36 437,-36 431,-30 431,-24 431,-24 431,-12 431,-12 431,-6 437,0 443,0 443,0 505,0 505,0 511,0 517,-6 517,-12 517,-12 517,-24 517,-24 517,-30 511,-36 505,-36"/>
<text text-anchor="middle" x="474" y="-15.5" font-family="sans" font-size="10.00" fill="#000000">salmon_quant</text>
</g>
<!-- 4 -->
<g id="node5" class="node">
<title>4</title>
<path fill="none" stroke="#56d8d8" stroke-width="2" d="M643,-36C643,-36 581,-36 581,-36 575,-36 569,-30 569,-24 569,-24 569,-12 569,-12 569,-6 575,0 581,0 581,0 643,0 643,0 649,0 655,-6 655,-12 655,-12 655,-24 655,-24 655,-30 649,-36 643,-36"/>
<text text-anchor="middle" x="612" y="-15.5" font-family="sans" font-size="10.00" fill="#000000">salmon_quant</text>
</g>
<!-- 5 -->
<g id="node6" class="node">
<title>5</title>
<path fill="none" stroke="#56d8d8" stroke-width="2" d="M781,-36C781,-36 719,-36 719,-36 713,-36 707,-30 707,-24 707,-24 707,-12 707,-12 707,-6 713,0 719,0 719,0 781,0 781,0 787,0 793,-6 793,-12 793,-12 793,-24 793,-24 793,-30 787,-36 781,-36"/>
<text text-anchor="middle" x="750" y="-15.5" font-family="sans" font-size="10.00" fill="#000000">salmon_quant</text>
</g>
<!-- 6 -->
<g id="node7" class="node">
<title>6</title>
<path fill="none" stroke="#56d8d8" stroke-width="2" stroke-dasharray="5,2" d="M919,-36C919,-36 857,-36 857,-36 851,-36 845,-30 845,-24 845,-24 845,-12 845,-12 845,-6 851,0 857,0 857,0 919,0 919,0 925,0 931,-6 931,-12 931,-12 931,-24 931,-24 931,-30 925,-36 919,-36"/>
<text text-anchor="middle" x="888" y="-15.5" font-family="sans" font-size="10.00" fill="#000000">salmon_quant</text>
</g>
<!-- 7 -->
<g id="node8" class="node">
<title>7</title>
<path fill="none" stroke="#56d8d8" stroke-width="2" stroke-dasharray="5,2" d="M1057,-36C1057,-36 995,-36 995,-36 989,-36 983,-30 983,-24 983,-24 983,-12 983,-12 983,-6 989,0 995,0 995,0 1057,0 1057,0 1063,0 1069,-6 1069,-12 1069,-12 1069,-24 1069,-24 1069,-30 1063,-36 1057,-36"/>
<text text-anchor="middle" x="1026" y="-15.5" font-family="sans" font-size="10.00" fill="#000000">salmon_quant</text>
</g>
<!-- 8 -->
<g id="node9" class="node">
<title>8</title>
<path fill="none" stroke="#56d8d8" stroke-width="2" stroke-dasharray="5,2" d="M1195,-36C1195,-36 1133,-36 1133,-36 1127,-36 1121,-30 1121,-24 1121,-24 1121,-12 1121,-12 1121,-6 1127,0 1133,0 1133,0 1195,0 1195,0 1201,0 1207,-6 1207,-12 1207,-12 1207,-24 1207,-24 1207,-30 1201,-36 1195,-36"/>
<text text-anchor="middle" x="1164" y="-15.5" font-family="sans" font-size="10.00" fill="#000000">salmon_quant</text>
</g>
<!-- 9 -->
<g id="node10" class="node">
<title>9</title>
<path fill="none" stroke="#56d8d8" stroke-width="2" stroke-dasharray="5,2" d="M1333,-36C1333,-36 1271,-36 1271,-36 1265,-36 1259,-30 1259,-24 1259,-24 1259,-12 1259,-12 1259,-6 1265,0 1271,0 1271,0 1333,0 1333,0 1339,0 1345,-6 1345,-12 1345,-12 1345,-24 1345,-24 1345,-30 1339,-36 1333,-36"/>
<text text-anchor="middle" x="1302" y="-15.5" font-family="sans" font-size="10.00" fill="#000000">salmon_quant</text>
</g>
<!-- 10 -->
<g id="node11" class="node">
<title>10</title>
<path fill="none" stroke="#56d8d8" stroke-width="2" stroke-dasharray="5,2" d="M1471,-36C1471,-36 1409,-36 1409,-36 1403,-36 1397,-30 1397,-24 1397,-24 1397,-12 1397,-12 1397,-6 1403,0 1409,0 1409,0 1471,0 1471,0 1477,0 1483,-6 1483,-12 1483,-12 1483,-24 1483,-24 1483,-30 1477,-36 1471,-36"/>
<text text-anchor="middle" x="1440" y="-15.5" font-family="sans" font-size="10.00" fill="#000000">salmon_quant</text>
</g>
<!-- 11 -->
<g id="node12" class="node">
<title>11</title>
<path fill="none" stroke="#56d8d8" stroke-width="2" stroke-dasharray="5,2" d="M1609,-36C1609,-36 1547,-36 1547,-36 1541,-36 1535,-30 1535,-24 1535,-24 1535,-12 1535,-12 1535,-6 1541,0 1547,0 1547,0 1609,0 1609,0 1615,0 1621,-6 1621,-12 1621,-12 1621,-24 1621,-24 1621,-30 1615,-36 1609,-36"/>
<text text-anchor="middle" x="1578" y="-15.5" font-family="sans" font-size="10.00" fill="#000000">salmon_quant</text>
</g>
<!-- 12 -->
<g id="node13" class="node">
<title>12</title>
<path fill="none" stroke="#56d8d8" stroke-width="2" stroke-dasharray="5,2" d="M1747,-36C1747,-36 1685,-36 1685,-36 1679,-36 1673,-30 1673,-24 1673,-24 1673,-12 1673,-12 1673,-6 1679,0 1685,0 1685,0 1747,0 1747,0 1753,0 1759,-6 1759,-12 1759,-12 1759,-24 1759,-24 1759,-30 1753,-36 1747,-36"/>
<text text-anchor="middle" x="1716" y="-15.5" font-family="sans" font-size="10.00" fill="#000000">salmon_quant</text>
</g>
<!-- 13 -->
<g id="node14" class="node">
<title>13</title>
<path fill="none" stroke="#56d8d8" stroke-width="2" stroke-dasharray="5,2" d="M1885,-36C1885,-36 1823,-36 1823,-36 1817,-36 1811,-30 1811,-24 1811,-24 1811,-12 1811,-12 1811,-6 1817,0 1823,0 1823,0 1885,0 1885,0 1891,0 1897,-6 1897,-12 1897,-12 1897,-24 1897,-24 1897,-30 1891,-36 1885,-36"/>
<text text-anchor="middle" x="1854" y="-15.5" font-family="sans" font-size="10.00" fill="#000000">salmon_quant</text>
</g>
<!-- 14 -->
<g id="node15" class="node">
<title>14</title>
<path fill="none" stroke="#56d8d8" stroke-width="2" stroke-dasharray="5,2" d="M2023,-36C2023,-36 1961,-36 1961,-36 1955,-36 1949,-30 1949,-24 1949,-24 1949,-12 1949,-12 1949,-6 1955,0 1961,0 1961,0 2023,0 2023,0 2029,0 2035,-6 2035,-12 2035,-12 2035,-24 2035,-24 2035,-30 2029,-36 2023,-36"/>
<text text-anchor="middle" x="1992" y="-15.5" font-family="sans" font-size="10.00" fill="#000000">salmon_quant</text>
</g>
<!-- 15 -->
<g id="node16" class="node">
<title>15</title>
<path fill="none" stroke="#56d8d8" stroke-width="2" d="M2161,-36C2161,-36 2099,-36 2099,-36 2093,-36 2087,-30 2087,-24 2087,-24 2087,-12 2087,-12 2087,-6 2093,0 2099,0 2099,0 2161,0 2161,0 2167,0 2173,-6 2173,-12 2173,-12 2173,-24 2173,-24 2173,-30 2167,-36 2161,-36"/>
<text text-anchor="middle" x="2130" y="-15.5" font-family="sans" font-size="10.00" fill="#000000">salmon_quant</text>
</g>
<!-- 16 -->
<g id="node17" class="node">
<title>16</title>
<path fill="none" stroke="#56d8d8" stroke-width="2" stroke-dasharray="5,2" d="M2299,-36C2299,-36 2237,-36 2237,-36 2231,-36 2225,-30 2225,-24 2225,-24 2225,-12 2225,-12 2225,-6 2231,0 2237,0 2237,0 2299,0 2299,0 2305,0 2311,-6 2311,-12 2311,-12 2311,-24 2311,-24 2311,-30 2305,-36 2299,-36"/>
<text text-anchor="middle" x="2268" y="-15.5" font-family="sans" font-size="10.00" fill="#000000">salmon_quant</text>
</g>
<!-- 17 -->
<g id="node18" class="node">
<title>17</title>
<path fill="none" stroke="#56d8d8" stroke-width="2" d="M2437,-36C2437,-36 2375,-36 2375,-36 2369,-36 2363,-30 2363,-24 2363,-24 2363,-12 2363,-12 2363,-6 2369,0 2375,0 2375,0 2437,0 2437,0 2443,0 2449,-6 2449,-12 2449,-12 2449,-24 2449,-24 2449,-30 2443,-36 2437,-36"/>
<text text-anchor="middle" x="2406" y="-15.5" font-family="sans" font-size="10.00" fill="#000000">salmon_quant</text>
</g>
<!-- 18 -->
<g id="node19" class="node">
<title>18</title>
<path fill="none" stroke="#56d8d8" stroke-width="2" stroke-dasharray="5,2" d="M2575,-36C2575,-36 2513,-36 2513,-36 2507,-36 2501,-30 2501,-24 2501,-24 2501,-12 2501,-12 2501,-6 2507,0 2513,0 2513,0 2575,0 2575,0 2581,0 2587,-6 2587,-12 2587,-12 2587,-24 2587,-24 2587,-30 2581,-36 2575,-36"/>
<text text-anchor="middle" x="2544" y="-15.5" font-family="sans" font-size="10.00" fill="#000000">salmon_quant</text>
</g>
<!-- 19 -->
<g id="node20" class="node">
<title>19</title>
<path fill="none" stroke="#56d8d8" stroke-width="2" stroke-dasharray="5,2" d="M2713,-36C2713,-36 2651,-36 2651,-36 2645,-36 2639,-30 2639,-24 2639,-24 2639,-12 2639,-12 2639,-6 2645,0 2651,0 2651,0 2713,0 2713,0 2719,0 2725,-6 2725,-12 2725,-12 2725,-24 2725,-24 2725,-30 2719,-36 2713,-36"/>
<text text-anchor="middle" x="2682" y="-15.5" font-family="sans" font-size="10.00" fill="#000000">salmon_quant</text>
</g>
<!-- 20 -->
<g id="node21" class="node">
<title>20</title>
<path fill="none" stroke="#56d8d8" stroke-width="2" stroke-dasharray="5,2" d="M2851,-36C2851,-36 2789,-36 2789,-36 2783,-36 2777,-30 2777,-24 2777,-24 2777,-12 2777,-12 2777,-6 2783,0 2789,0 2789,0 2851,0 2851,0 2857,0 2863,-6 2863,-12 2863,-12 2863,-24 2863,-24 2863,-30 2857,-36 2851,-36"/>
<text text-anchor="middle" x="2820" y="-15.5" font-family="sans" font-size="10.00" fill="#000000">salmon_quant</text>
</g>
<!-- 21 -->
<g id="node22" class="node">
<title>21</title>
<path fill="none" stroke="#56d8d8" stroke-width="2" stroke-dasharray="5,2" d="M2989,-36C2989,-36 2927,-36 2927,-36 2921,-36 2915,-30 2915,-24 2915,-24 2915,-12 2915,-12 2915,-6 2921,0 2927,0 2927,0 2989,0 2989,0 2995,0 3001,-6 3001,-12 3001,-12 3001,-24 3001,-24 3001,-30 2995,-36 2989,-36"/>
<text text-anchor="middle" x="2958" y="-15.5" font-family="sans" font-size="10.00" fill="#000000">salmon_quant</text>
</g>
<!-- 22 -->
<g id="node23" class="node">
<title>22</title>
<path fill="none" stroke="#56d8d8" stroke-width="2" stroke-dasharray="5,2" d="M3127,-36C3127,-36 3065,-36 3065,-36 3059,-36 3053,-30 3053,-24 3053,-24 3053,-12 3053,-12 3053,-6 3059,0 3065,0 3065,0 3127,0 3127,0 3133,0 3139,-6 3139,-12 3139,-12 3139,-24 3139,-24 3139,-30 3133,-36 3127,-36"/>
<text text-anchor="middle" x="3096" y="-15.5" font-family="sans" font-size="10.00" fill="#000000">salmon_quant</text>
</g>
<!-- 23 -->
<g id="node24" class="node">
<title>23</title>
<path fill="none" stroke="#56d8d8" stroke-width="2" stroke-dasharray="5,2" d="M3265,-36C3265,-36 3203,-36 3203,-36 3197,-36 3191,-30 3191,-24 3191,-24 3191,-12 3191,-12 3191,-6 3197,0 3203,0 3203,0 3265,0 3265,0 3271,0 3277,-6 3277,-12 3277,-12 3277,-24 3277,-24 3277,-30 3271,-36 3265,-36"/>
<text text-anchor="middle" x="3234" y="-15.5" font-family="sans" font-size="10.00" fill="#000000">salmon_quant</text>
</g>
<!-- 24 -->
<g id="node25" class="node">
<title>24</title>
<path fill="none" stroke="#56d8d8" stroke-width="2" stroke-dasharray="5,2" d="M3403,-36C3403,-36 3341,-36 3341,-36 3335,-36 3329,-30 3329,-24 3329,-24 3329,-12 3329,-12 3329,-6 3335,0 3341,0 3341,0 3403,0 3403,0 3409,0 3415,-6 3415,-12 3415,-12 3415,-24 3415,-24 3415,-30 3409,-36 3403,-36"/>
<text text-anchor="middle" x="3372" y="-15.5" font-family="sans" font-size="10.00" fill="#000000">salmon_quant</text>
</g>
<!-- 25 -->
<g id="node26" class="node">
<title>25</title>
<path fill="none" stroke="#56d8d8" stroke-width="2" stroke-dasharray="5,2" d="M3541,-36C3541,-36 3479,-36 3479,-36 3473,-36 3467,-30 3467,-24 3467,-24 3467,-12 3467,-12 3467,-6 3473,0 3479,0 3479,0 3541,0 3541,0 3547,0 3553,-6 3553,-12 3553,-12 3553,-24 3553,-24 3553,-30 3547,-36 3541,-36"/>
<text text-anchor="middle" x="3510" y="-15.5" font-family="sans" font-size="10.00" fill="#000000">salmon_quant</text>
</g>
<!-- 26 -->
<g id="node27" class="node">
<title>26</title>
<path fill="none" stroke="#56d8d8" stroke-width="2" stroke-dasharray="5,2" d="M3679,-36C3679,-36 3617,-36 3617,-36 3611,-36 3605,-30 3605,-24 3605,-24 3605,-12 3605,-12 3605,-6 3611,0 3617,0 3617,0 3679,0 3679,0 3685,0 3691,-6 3691,-12 3691,-12 3691,-24 3691,-24 3691,-30 3685,-36 3679,-36"/>
<text text-anchor="middle" x="3648" y="-15.5" font-family="sans" font-size="10.00" fill="#000000">salmon_quant</text>
</g>
<!-- 27 -->
<g id="node28" class="node">
<title>27</title>
<path fill="none" stroke="#56d8d8" stroke-width="2" stroke-dasharray="5,2" d="M3817,-36C3817,-36 3755,-36 3755,-36 3749,-36 3743,-30 3743,-24 3743,-24 3743,-12 3743,-12 3743,-6 3749,0 3755,0 3755,0 3817,0 3817,0 3823,0 3829,-6 3829,-12 3829,-12 3829,-24 3829,-24 3829,-30 3823,-36 3817,-36"/>
<text text-anchor="middle" x="3786" y="-15.5" font-family="sans" font-size="10.00" fill="#000000">salmon_quant</text>
</g>
<!-- 28 -->
<g id="node29" class="node">
<title>28</title>
<path fill="none" stroke="#56d8d8" stroke-width="2" stroke-dasharray="5,2" d="M3955,-36C3955,-36 3893,-36 3893,-36 3887,-36 3881,-30 3881,-24 3881,-24 3881,-12 3881,-12 3881,-6 3887,0 3893,0 3893,0 3955,0 3955,0 3961,0 3967,-6 3967,-12 3967,-12 3967,-24 3967,-24 3967,-30 3961,-36 3955,-36"/>
<text text-anchor="middle" x="3924" y="-15.5" font-family="sans" font-size="10.00" fill="#000000">salmon_quant</text>
</g>
<!-- 29 -->
<g id="node30" class="node">
<title>29</title>
<path fill="none" stroke="#d6d856" stroke-width="2" stroke-dasharray="5,2" d="M75,-108C75,-108 45,-108 45,-108 39,-108 33,-102 33,-96 33,-96 33,-84 33,-84 33,-78 39,-72 45,-72 45,-72 75,-72 75,-72 81,-72 87,-78 87,-84 87,-84 87,-96 87,-96 87,-102 81,-108 75,-108"/>
<text text-anchor="middle" x="60" y="-87.5" font-family="sans" font-size="10.00" fill="#000000">fastp</text>
</g>
<!-- 29&#45;&gt;0 -->
<g id="edge1" class="edge">
<title>29&#45;&gt;0</title>
<path fill="none" stroke="#c0c0c0" stroke-width="2" d="M60,-71.8314C60,-64.131 60,-54.9743 60,-46.4166"/>
<polygon fill="#c0c0c0" stroke="#c0c0c0" stroke-width="2" points="63.5001,-46.4132 60,-36.4133 56.5001,-46.4133 63.5001,-46.4132"/>
</g>
<!-- 30 -->
<g id="node31" class="node">
<title>30</title>
<path fill="none" stroke="#d6d856" stroke-width="2" stroke-dasharray="5,2" d="M213,-108C213,-108 183,-108 183,-108 177,-108 171,-102 171,-96 171,-96 171,-84 171,-84 171,-78 177,-72 183,-72 183,-72 213,-72 213,-72 219,-72 225,-78 225,-84 225,-84 225,-96 225,-96 225,-102 219,-108 213,-108"/>
<text text-anchor="middle" x="198" y="-87.5" font-family="sans" font-size="10.00" fill="#000000">fastp</text>
</g>
<!-- 30&#45;&gt;1 -->
<g id="edge2" class="edge">
<title>30&#45;&gt;1</title>
<path fill="none" stroke="#c0c0c0" stroke-width="2" d="M198,-71.8314C198,-64.131 198,-54.9743 198,-46.4166"/>
<polygon fill="#c0c0c0" stroke="#c0c0c0" stroke-width="2" points="201.5001,-46.4132 198,-36.4133 194.5001,-46.4133 201.5001,-46.4132"/>
</g>
<!-- 31 -->
<g id="node32" class="node">
<title>31</title>
<path fill="none" stroke="#d6d856" stroke-width="2" stroke-dasharray="5,2" d="M351,-108C351,-108 321,-108 321,-108 315,-108 309,-102 309,-96 309,-96 309,-84 309,-84 309,-78 315,-72 321,-72 321,-72 351,-72 351,-72 357,-72 363,-78 363,-84 363,-84 363,-96 363,-96 363,-102 357,-108 351,-108"/>
<text text-anchor="middle" x="336" y="-87.5" font-family="sans" font-size="10.00" fill="#000000">fastp</text>
</g>
<!-- 31&#45;&gt;2 -->
<g id="edge3" class="edge">
<title>31&#45;&gt;2</title>
<path fill="none" stroke="#c0c0c0" stroke-width="2" d="M336,-71.8314C336,-64.131 336,-54.9743 336,-46.4166"/>
<polygon fill="#c0c0c0" stroke="#c0c0c0" stroke-width="2" points="339.5001,-46.4132 336,-36.4133 332.5001,-46.4133 339.5001,-46.4132"/>
</g>
<!-- 32 -->
<g id="node33" class="node">
<title>32</title>
<path fill="none" stroke="#d6d856" stroke-width="2" stroke-dasharray="5,2" d="M489,-108C489,-108 459,-108 459,-108 453,-108 447,-102 447,-96 447,-96 447,-84 447,-84 447,-78 453,-72 459,-72 459,-72 489,-72 489,-72 495,-72 501,-78 501,-84 501,-84 501,-96 501,-96 501,-102 495,-108 489,-108"/>
<text text-anchor="middle" x="474" y="-87.5" font-family="sans" font-size="10.00" fill="#000000">fastp</text>
</g>
<!-- 32&#45;&gt;3 -->
<g id="edge4" class="edge">
<title>32&#45;&gt;3</title>
<path fill="none" stroke="#c0c0c0" stroke-width="2" d="M474,-71.8314C474,-64.131 474,-54.9743 474,-46.4166"/>
<polygon fill="#c0c0c0" stroke="#c0c0c0" stroke-width="2" points="477.5001,-46.4132 474,-36.4133 470.5001,-46.4133 477.5001,-46.4132"/>
</g>
<!-- 33 -->
<g id="node34" class="node">
<title>33</title>
<path fill="none" stroke="#d6d856" stroke-width="2" d="M627,-108C627,-108 597,-108 597,-108 591,-108 585,-102 585,-96 585,-96 585,-84 585,-84 585,-78 591,-72 597,-72 597,-72 627,-72 627,-72 633,-72 639,-78 639,-84 639,-84 639,-96 639,-96 639,-102 633,-108 627,-108"/>
<text text-anchor="middle" x="612" y="-87.5" font-family="sans" font-size="10.00" fill="#000000">fastp</text>
</g>
<!-- 33&#45;&gt;4 -->
<g id="edge5" class="edge">
<title>33&#45;&gt;4</title>
<path fill="none" stroke="#c0c0c0" stroke-width="2" d="M612,-71.8314C612,-64.131 612,-54.9743 612,-46.4166"/>
<polygon fill="#c0c0c0" stroke="#c0c0c0" stroke-width="2" points="615.5001,-46.4132 612,-36.4133 608.5001,-46.4133 615.5001,-46.4132"/>
</g>
<!-- 34 -->
<g id="node35" class="node">
<title>34</title>
<path fill="none" stroke="#d6d856" stroke-width="2" d="M765,-108C765,-108 735,-108 735,-108 729,-108 723,-102 723,-96 723,-96 723,-84 723,-84 723,-78 729,-72 735,-72 735,-72 765,-72 765,-72 771,-72 777,-78 777,-84 777,-84 777,-96 777,-96 777,-102 771,-108 765,-108"/>
<text text-anchor="middle" x="750" y="-87.5" font-family="sans" font-size="10.00" fill="#000000">fastp</text>
</g>
<!-- 34&#45;&gt;5 -->
<g id="edge6" class="edge">
<title>34&#45;&gt;5</title>
<path fill="none" stroke="#c0c0c0" stroke-width="2" d="M750,-71.8314C750,-64.131 750,-54.9743 750,-46.4166"/>
<polygon fill="#c0c0c0" stroke="#c0c0c0" stroke-width="2" points="753.5001,-46.4132 750,-36.4133 746.5001,-46.4133 753.5001,-46.4132"/>
</g>
<!-- 35 -->
<g id="node36" class="node">
<title>35</title>
<path fill="none" stroke="#d6d856" stroke-width="2" stroke-dasharray="5,2" d="M903,-108C903,-108 873,-108 873,-108 867,-108 861,-102 861,-96 861,-96 861,-84 861,-84 861,-78 867,-72 873,-72 873,-72 903,-72 903,-72 909,-72 915,-78 915,-84 915,-84 915,-96 915,-96 915,-102 909,-108 903,-108"/>
<text text-anchor="middle" x="888" y="-87.5" font-family="sans" font-size="10.00" fill="#000000">fastp</text>
</g>
<!-- 35&#45;&gt;6 -->
<g id="edge7" class="edge">
<title>35&#45;&gt;6</title>
<path fill="none" stroke="#c0c0c0" stroke-width="2" d="M888,-71.8314C888,-64.131 888,-54.9743 888,-46.4166"/>
<polygon fill="#c0c0c0" stroke="#c0c0c0" stroke-width="2" points="891.5001,-46.4132 888,-36.4133 884.5001,-46.4133 891.5001,-46.4132"/>
</g>
<!-- 36 -->
<g id="node37" class="node">
<title>36</title>
<path fill="none" stroke="#d6d856" stroke-width="2" stroke-dasharray="5,2" d="M1041,-108C1041,-108 1011,-108 1011,-108 1005,-108 999,-102 999,-96 999,-96 999,-84 999,-84 999,-78 1005,-72 1011,-72 1011,-72 1041,-72 1041,-72 1047,-72 1053,-78 1053,-84 1053,-84 1053,-96 1053,-96 1053,-102 1047,-108 1041,-108"/>
<text text-anchor="middle" x="1026" y="-87.5" font-family="sans" font-size="10.00" fill="#000000">fastp</text>
</g>
<!-- 36&#45;&gt;7 -->
<g id="edge8" class="edge">
<title>36&#45;&gt;7</title>
<path fill="none" stroke="#c0c0c0" stroke-width="2" d="M1026,-71.8314C1026,-64.131 1026,-54.9743 1026,-46.4166"/>
<polygon fill="#c0c0c0" stroke="#c0c0c0" stroke-width="2" points="1029.5001,-46.4132 1026,-36.4133 1022.5001,-46.4133 1029.5001,-46.4132"/>
</g>
<!-- 37 -->
<g id="node38" class="node">
<title>37</title>
<path fill="none" stroke="#d6d856" stroke-width="2" stroke-dasharray="5,2" d="M1179,-108C1179,-108 1149,-108 1149,-108 1143,-108 1137,-102 1137,-96 1137,-96 1137,-84 1137,-84 1137,-78 1143,-72 1149,-72 1149,-72 1179,-72 1179,-72 1185,-72 1191,-78 1191,-84 1191,-84 1191,-96 1191,-96 1191,-102 1185,-108 1179,-108"/>
<text text-anchor="middle" x="1164" y="-87.5" font-family="sans" font-size="10.00" fill="#000000">fastp</text>
</g>
<!-- 37&#45;&gt;8 -->
<g id="edge9" class="edge">
<title>37&#45;&gt;8</title>
<path fill="none" stroke="#c0c0c0" stroke-width="2" d="M1164,-71.8314C1164,-64.131 1164,-54.9743 1164,-46.4166"/>
<polygon fill="#c0c0c0" stroke="#c0c0c0" stroke-width="2" points="1167.5001,-46.4132 1164,-36.4133 1160.5001,-46.4133 1167.5001,-46.4132"/>
</g>
<!-- 38 -->
<g id="node39" class="node">
<title>38</title>
<path fill="none" stroke="#d6d856" stroke-width="2" stroke-dasharray="5,2" d="M1317,-108C1317,-108 1287,-108 1287,-108 1281,-108 1275,-102 1275,-96 1275,-96 1275,-84 1275,-84 1275,-78 1281,-72 1287,-72 1287,-72 1317,-72 1317,-72 1323,-72 1329,-78 1329,-84 1329,-84 1329,-96 1329,-96 1329,-102 1323,-108 1317,-108"/>
<text text-anchor="middle" x="1302" y="-87.5" font-family="sans" font-size="10.00" fill="#000000">fastp</text>
</g>
<!-- 38&#45;&gt;9 -->
<g id="edge10" class="edge">
<title>38&#45;&gt;9</title>
<path fill="none" stroke="#c0c0c0" stroke-width="2" d="M1302,-71.8314C1302,-64.131 1302,-54.9743 1302,-46.4166"/>
<polygon fill="#c0c0c0" stroke="#c0c0c0" stroke-width="2" points="1305.5001,-46.4132 1302,-36.4133 1298.5001,-46.4133 1305.5001,-46.4132"/>
</g>
<!-- 39 -->
<g id="node40" class="node">
<title>39</title>
<path fill="none" stroke="#d6d856" stroke-width="2" stroke-dasharray="5,2" d="M1455,-108C1455,-108 1425,-108 1425,-108 1419,-108 1413,-102 1413,-96 1413,-96 1413,-84 1413,-84 1413,-78 1419,-72 1425,-72 1425,-72 1455,-72 1455,-72 1461,-72 1467,-78 1467,-84 1467,-84 1467,-96 1467,-96 1467,-102 1461,-108 1455,-108"/>
<text text-anchor="middle" x="1440" y="-87.5" font-family="sans" font-size="10.00" fill="#000000">fastp</text>
</g>
<!-- 39&#45;&gt;10 -->
<g id="edge11" class="edge">
<title>39&#45;&gt;10</title>
<path fill="none" stroke="#c0c0c0" stroke-width="2" d="M1440,-71.8314C1440,-64.131 1440,-54.9743 1440,-46.4166"/>
<polygon fill="#c0c0c0" stroke="#c0c0c0" stroke-width="2" points="1443.5001,-46.4132 1440,-36.4133 1436.5001,-46.4133 1443.5001,-46.4132"/>
</g>
<!-- 40 -->
<g id="node41" class="node">
<title>40</title>
<path fill="none" stroke="#d6d856" stroke-width="2" stroke-dasharray="5,2" d="M1593,-108C1593,-108 1563,-108 1563,-108 1557,-108 1551,-102 1551,-96 1551,-96 1551,-84 1551,-84 1551,-78 1557,-72 1563,-72 1563,-72 1593,-72 1593,-72 1599,-72 1605,-78 1605,-84 1605,-84 1605,-96 1605,-96 1605,-102 1599,-108 1593,-108"/>
<text text-anchor="middle" x="1578" y="-87.5" font-family="sans" font-size="10.00" fill="#000000">fastp</text>
</g>
<!-- 40&#45;&gt;11 -->
<g id="edge12" class="edge">
<title>40&#45;&gt;11</title>
<path fill="none" stroke="#c0c0c0" stroke-width="2" d="M1578,-71.8314C1578,-64.131 1578,-54.9743 1578,-46.4166"/>
<polygon fill="#c0c0c0" stroke="#c0c0c0" stroke-width="2" points="1581.5001,-46.4132 1578,-36.4133 1574.5001,-46.4133 1581.5001,-46.4132"/>
</g>
<!-- 41 -->
<g id="node42" class="node">
<title>41</title>
<path fill="none" stroke="#d6d856" stroke-width="2" stroke-dasharray="5,2" d="M1731,-108C1731,-108 1701,-108 1701,-108 1695,-108 1689,-102 1689,-96 1689,-96 1689,-84 1689,-84 1689,-78 1695,-72 1701,-72 1701,-72 1731,-72 1731,-72 1737,-72 1743,-78 1743,-84 1743,-84 1743,-96 1743,-96 1743,-102 1737,-108 1731,-108"/>
<text text-anchor="middle" x="1716" y="-87.5" font-family="sans" font-size="10.00" fill="#000000">fastp</text>
</g>
<!-- 41&#45;&gt;12 -->
<g id="edge13" class="edge">
<title>41&#45;&gt;12</title>
<path fill="none" stroke="#c0c0c0" stroke-width="2" d="M1716,-71.8314C1716,-64.131 1716,-54.9743 1716,-46.4166"/>
<polygon fill="#c0c0c0" stroke="#c0c0c0" stroke-width="2" points="1719.5001,-46.4132 1716,-36.4133 1712.5001,-46.4133 1719.5001,-46.4132"/>
</g>
<!-- 42 -->
<g id="node43" class="node">
<title>42</title>
<path fill="none" stroke="#d6d856" stroke-width="2" stroke-dasharray="5,2" d="M1869,-108C1869,-108 1839,-108 1839,-108 1833,-108 1827,-102 1827,-96 1827,-96 1827,-84 1827,-84 1827,-78 1833,-72 1839,-72 1839,-72 1869,-72 1869,-72 1875,-72 1881,-78 1881,-84 1881,-84 1881,-96 1881,-96 1881,-102 1875,-108 1869,-108"/>
<text text-anchor="middle" x="1854" y="-87.5" font-family="sans" font-size="10.00" fill="#000000">fastp</text>
</g>
<!-- 42&#45;&gt;13 -->
<g id="edge14" class="edge">
<title>42&#45;&gt;13</title>
<path fill="none" stroke="#c0c0c0" stroke-width="2" d="M1854,-71.8314C1854,-64.131 1854,-54.9743 1854,-46.4166"/>
<polygon fill="#c0c0c0" stroke="#c0c0c0" stroke-width="2" points="1857.5001,-46.4132 1854,-36.4133 1850.5001,-46.4133 1857.5001,-46.4132"/>
</g>
<!-- 43 -->
<g id="node44" class="node">
<title>43</title>
<path fill="none" stroke="#d6d856" stroke-width="2" stroke-dasharray="5,2" d="M2007,-108C2007,-108 1977,-108 1977,-108 1971,-108 1965,-102 1965,-96 1965,-96 1965,-84 1965,-84 1965,-78 1971,-72 1977,-72 1977,-72 2007,-72 2007,-72 2013,-72 2019,-78 2019,-84 2019,-84 2019,-96 2019,-96 2019,-102 2013,-108 2007,-108"/>
<text text-anchor="middle" x="1992" y="-87.5" font-family="sans" font-size="10.00" fill="#000000">fastp</text>
</g>
<!-- 43&#45;&gt;14 -->
<g id="edge15" class="edge">
<title>43&#45;&gt;14</title>
<path fill="none" stroke="#c0c0c0" stroke-width="2" d="M1992,-71.8314C1992,-64.131 1992,-54.9743 1992,-46.4166"/>
<polygon fill="#c0c0c0" stroke="#c0c0c0" stroke-width="2" points="1995.5001,-46.4132 1992,-36.4133 1988.5001,-46.4133 1995.5001,-46.4132"/>
</g>
<!-- 44 -->
<g id="node45" class="node">
<title>44</title>
<path fill="none" stroke="#d6d856" stroke-width="2" d="M2145,-108C2145,-108 2115,-108 2115,-108 2109,-108 2103,-102 2103,-96 2103,-96 2103,-84 2103,-84 2103,-78 2109,-72 2115,-72 2115,-72 2145,-72 2145,-72 2151,-72 2157,-78 2157,-84 2157,-84 2157,-96 2157,-96 2157,-102 2151,-108 2145,-108"/>
<text text-anchor="middle" x="2130" y="-87.5" font-family="sans" font-size="10.00" fill="#000000">fastp</text>
</g>
<!-- 44&#45;&gt;15 -->
<g id="edge16" class="edge">
<title>44&#45;&gt;15</title>
<path fill="none" stroke="#c0c0c0" stroke-width="2" d="M2130,-71.8314C2130,-64.131 2130,-54.9743 2130,-46.4166"/>
<polygon fill="#c0c0c0" stroke="#c0c0c0" stroke-width="2" points="2133.5001,-46.4132 2130,-36.4133 2126.5001,-46.4133 2133.5001,-46.4132"/>
</g>
<!-- 45 -->
<g id="node46" class="node">
<title>45</title>
<path fill="none" stroke="#d6d856" stroke-width="2" stroke-dasharray="5,2" d="M2283,-108C2283,-108 2253,-108 2253,-108 2247,-108 2241,-102 2241,-96 2241,-96 2241,-84 2241,-84 2241,-78 2247,-72 2253,-72 2253,-72 2283,-72 2283,-72 2289,-72 2295,-78 2295,-84 2295,-84 2295,-96 2295,-96 2295,-102 2289,-108 2283,-108"/>
<text text-anchor="middle" x="2268" y="-87.5" font-family="sans" font-size="10.00" fill="#000000">fastp</text>
</g>
<!-- 45&#45;&gt;16 -->
<g id="edge17" class="edge">
<title>45&#45;&gt;16</title>
<path fill="none" stroke="#c0c0c0" stroke-width="2" d="M2268,-71.8314C2268,-64.131 2268,-54.9743 2268,-46.4166"/>
<polygon fill="#c0c0c0" stroke="#c0c0c0" stroke-width="2" points="2271.5001,-46.4132 2268,-36.4133 2264.5001,-46.4133 2271.5001,-46.4132"/>
</g>
<!-- 46 -->
<g id="node47" class="node">
<title>46</title>
<path fill="none" stroke="#d6d856" stroke-width="2" d="M2421,-108C2421,-108 2391,-108 2391,-108 2385,-108 2379,-102 2379,-96 2379,-96 2379,-84 2379,-84 2379,-78 2385,-72 2391,-72 2391,-72 2421,-72 2421,-72 2427,-72 2433,-78 2433,-84 2433,-84 2433,-96 2433,-96 2433,-102 2427,-108 2421,-108"/>
<text text-anchor="middle" x="2406" y="-87.5" font-family="sans" font-size="10.00" fill="#000000">fastp</text>
</g>
<!-- 46&#45;&gt;17 -->
<g id="edge18" class="edge">
<title>46&#45;&gt;17</title>
<path fill="none" stroke="#c0c0c0" stroke-width="2" d="M2406,-71.8314C2406,-64.131 2406,-54.9743 2406,-46.4166"/>
<polygon fill="#c0c0c0" stroke="#c0c0c0" stroke-width="2" points="2409.5001,-46.4132 2406,-36.4133 2402.5001,-46.4133 2409.5001,-46.4132"/>
</g>
<!-- 47 -->
<g id="node48" class="node">
<title>47</title>
<path fill="none" stroke="#d6d856" stroke-width="2" stroke-dasharray="5,2" d="M2559,-108C2559,-108 2529,-108 2529,-108 2523,-108 2517,-102 2517,-96 2517,-96 2517,-84 2517,-84 2517,-78 2523,-72 2529,-72 2529,-72 2559,-72 2559,-72 2565,-72 2571,-78 2571,-84 2571,-84 2571,-96 2571,-96 2571,-102 2565,-108 2559,-108"/>
<text text-anchor="middle" x="2544" y="-87.5" font-family="sans" font-size="10.00" fill="#000000">fastp</text>
</g>
<!-- 47&#45;&gt;18 -->
<g id="edge19" class="edge">
<title>47&#45;&gt;18</title>
<path fill="none" stroke="#c0c0c0" stroke-width="2" d="M2544,-71.8314C2544,-64.131 2544,-54.9743 2544,-46.4166"/>
<polygon fill="#c0c0c0" stroke="#c0c0c0" stroke-width="2" points="2547.5001,-46.4132 2544,-36.4133 2540.5001,-46.4133 2547.5001,-46.4132"/>
</g>
<!-- 48 -->
<g id="node49" class="node">
<title>48</title>
<path fill="none" stroke="#d6d856" stroke-width="2" stroke-dasharray="5,2" d="M2697,-108C2697,-108 2667,-108 2667,-108 2661,-108 2655,-102 2655,-96 2655,-96 2655,-84 2655,-84 2655,-78 2661,-72 2667,-72 2667,-72 2697,-72 2697,-72 2703,-72 2709,-78 2709,-84 2709,-84 2709,-96 2709,-96 2709,-102 2703,-108 2697,-108"/>
<text text-anchor="middle" x="2682" y="-87.5" font-family="sans" font-size="10.00" fill="#000000">fastp</text>
</g>
<!-- 48&#45;&gt;19 -->
<g id="edge20" class="edge">
<title>48&#45;&gt;19</title>
<path fill="none" stroke="#c0c0c0" stroke-width="2" d="M2682,-71.8314C2682,-64.131 2682,-54.9743 2682,-46.4166"/>
<polygon fill="#c0c0c0" stroke="#c0c0c0" stroke-width="2" points="2685.5001,-46.4132 2682,-36.4133 2678.5001,-46.4133 2685.5001,-46.4132"/>
</g>
<!-- 49 -->
<g id="node50" class="node">
<title>49</title>
<path fill="none" stroke="#d6d856" stroke-width="2" stroke-dasharray="5,2" d="M2835,-108C2835,-108 2805,-108 2805,-108 2799,-108 2793,-102 2793,-96 2793,-96 2793,-84 2793,-84 2793,-78 2799,-72 2805,-72 2805,-72 2835,-72 2835,-72 2841,-72 2847,-78 2847,-84 2847,-84 2847,-96 2847,-96 2847,-102 2841,-108 2835,-108"/>
<text text-anchor="middle" x="2820" y="-87.5" font-family="sans" font-size="10.00" fill="#000000">fastp</text>
</g>
<!-- 49&#45;&gt;20 -->
<g id="edge21" class="edge">
<title>49&#45;&gt;20</title>
<path fill="none" stroke="#c0c0c0" stroke-width="2" d="M2820,-71.8314C2820,-64.131 2820,-54.9743 2820,-46.4166"/>
<polygon fill="#c0c0c0" stroke="#c0c0c0" stroke-width="2" points="2823.5001,-46.4132 2820,-36.4133 2816.5001,-46.4133 2823.5001,-46.4132"/>
</g>
<!-- 50 -->
<g id="node51" class="node">
<title>50</title>
<path fill="none" stroke="#d6d856" stroke-width="2" stroke-dasharray="5,2" d="M2973,-108C2973,-108 2943,-108 2943,-108 2937,-108 2931,-102 2931,-96 2931,-96 2931,-84 2931,-84 2931,-78 2937,-72 2943,-72 2943,-72 2973,-72 2973,-72 2979,-72 2985,-78 2985,-84 2985,-84 2985,-96 2985,-96 2985,-102 2979,-108 2973,-108"/>
<text text-anchor="middle" x="2958" y="-87.5" font-family="sans" font-size="10.00" fill="#000000">fastp</text>
</g>
<!-- 50&#45;&gt;21 -->
<g id="edge22" class="edge">
<title>50&#45;&gt;21</title>
<path fill="none" stroke="#c0c0c0" stroke-width="2" d="M2958,-71.8314C2958,-64.131 2958,-54.9743 2958,-46.4166"/>
<polygon fill="#c0c0c0" stroke="#c0c0c0" stroke-width="2" points="2961.5001,-46.4132 2958,-36.4133 2954.5001,-46.4133 2961.5001,-46.4132"/>
</g>
<!-- 51 -->
<g id="node52" class="node">
<title>51</title>
<path fill="none" stroke="#d6d856" stroke-width="2" stroke-dasharray="5,2" d="M3111,-108C3111,-108 3081,-108 3081,-108 3075,-108 3069,-102 3069,-96 3069,-96 3069,-84 3069,-84 3069,-78 3075,-72 3081,-72 3081,-72 3111,-72 3111,-72 3117,-72 3123,-78 3123,-84 3123,-84 3123,-96 3123,-96 3123,-102 3117,-108 3111,-108"/>
<text text-anchor="middle" x="3096" y="-87.5" font-family="sans" font-size="10.00" fill="#000000">fastp</text>
</g>
<!-- 51&#45;&gt;22 -->
<g id="edge23" class="edge">
<title>51&#45;&gt;22</title>
<path fill="none" stroke="#c0c0c0" stroke-width="2" d="M3096,-71.8314C3096,-64.131 3096,-54.9743 3096,-46.4166"/>
<polygon fill="#c0c0c0" stroke="#c0c0c0" stroke-width="2" points="3099.5001,-46.4132 3096,-36.4133 3092.5001,-46.4133 3099.5001,-46.4132"/>
</g>
<!-- 52 -->
<g id="node53" class="node">
<title>52</title>
<path fill="none" stroke="#d6d856" stroke-width="2" stroke-dasharray="5,2" d="M3249,-108C3249,-108 3219,-108 3219,-108 3213,-108 3207,-102 3207,-96 3207,-96 3207,-84 3207,-84 3207,-78 3213,-72 3219,-72 3219,-72 3249,-72 3249,-72 3255,-72 3261,-78 3261,-84 3261,-84 3261,-96 3261,-96 3261,-102 3255,-108 3249,-108"/>
<text text-anchor="middle" x="3234" y="-87.5" font-family="sans" font-size="10.00" fill="#000000">fastp</text>
</g>
<!-- 52&#45;&gt;23 -->
<g id="edge24" class="edge">
<title>52&#45;&gt;23</title>
<path fill="none" stroke="#c0c0c0" stroke-width="2" d="M3234,-71.8314C3234,-64.131 3234,-54.9743 3234,-46.4166"/>
<polygon fill="#c0c0c0" stroke="#c0c0c0" stroke-width="2" points="3237.5001,-46.4132 3234,-36.4133 3230.5001,-46.4133 3237.5001,-46.4132"/>
</g>
<!-- 53 -->
<g id="node54" class="node">
<title>53</title>
<path fill="none" stroke="#d6d856" stroke-width="2" stroke-dasharray="5,2" d="M3387,-108C3387,-108 3357,-108 3357,-108 3351,-108 3345,-102 3345,-96 3345,-96 3345,-84 3345,-84 3345,-78 3351,-72 3357,-72 3357,-72 3387,-72 3387,-72 3393,-72 3399,-78 3399,-84 3399,-84 3399,-96 3399,-96 3399,-102 3393,-108 3387,-108"/>
<text text-anchor="middle" x="3372" y="-87.5" font-family="sans" font-size="10.00" fill="#000000">fastp</text>
</g>
<!-- 53&#45;&gt;24 -->
<g id="edge25" class="edge">
<title>53&#45;&gt;24</title>
<path fill="none" stroke="#c0c0c0" stroke-width="2" d="M3372,-71.8314C3372,-64.131 3372,-54.9743 3372,-46.4166"/>
<polygon fill="#c0c0c0" stroke="#c0c0c0" stroke-width="2" points="3375.5001,-46.4132 3372,-36.4133 3368.5001,-46.4133 3375.5001,-46.4132"/>
</g>
<!-- 54 -->
<g id="node55" class="node">
<title>54</title>
<path fill="none" stroke="#d6d856" stroke-width="2" stroke-dasharray="5,2" d="M3525,-108C3525,-108 3495,-108 3495,-108 3489,-108 3483,-102 3483,-96 3483,-96 3483,-84 3483,-84 3483,-78 3489,-72 3495,-72 3495,-72 3525,-72 3525,-72 3531,-72 3537,-78 3537,-84 3537,-84 3537,-96 3537,-96 3537,-102 3531,-108 3525,-108"/>
<text text-anchor="middle" x="3510" y="-87.5" font-family="sans" font-size="10.00" fill="#000000">fastp</text>
</g>
<!-- 54&#45;&gt;25 -->
<g id="edge26" class="edge">
<title>54&#45;&gt;25</title>
<path fill="none" stroke="#c0c0c0" stroke-width="2" d="M3510,-71.8314C3510,-64.131 3510,-54.9743 3510,-46.4166"/>
<polygon fill="#c0c0c0" stroke="#c0c0c0" stroke-width="2" points="3513.5001,-46.4132 3510,-36.4133 3506.5001,-46.4133 3513.5001,-46.4132"/>
</g>
<!-- 55 -->
<g id="node56" class="node">
<title>55</title>
<path fill="none" stroke="#d6d856" stroke-width="2" stroke-dasharray="5,2" d="M3663,-108C3663,-108 3633,-108 3633,-108 3627,-108 3621,-102 3621,-96 3621,-96 3621,-84 3621,-84 3621,-78 3627,-72 3633,-72 3633,-72 3663,-72 3663,-72 3669,-72 3675,-78 3675,-84 3675,-84 3675,-96 3675,-96 3675,-102 3669,-108 3663,-108"/>
<text text-anchor="middle" x="3648" y="-87.5" font-family="sans" font-size="10.00" fill="#000000">fastp</text>
</g>
<!-- 55&#45;&gt;26 -->
<g id="edge27" class="edge">
<title>55&#45;&gt;26</title>
<path fill="none" stroke="#c0c0c0" stroke-width="2" d="M3648,-71.8314C3648,-64.131 3648,-54.9743 3648,-46.4166"/>
<polygon fill="#c0c0c0" stroke="#c0c0c0" stroke-width="2" points="3651.5001,-46.4132 3648,-36.4133 3644.5001,-46.4133 3651.5001,-46.4132"/>
</g>
<!-- 56 -->
<g id="node57" class="node">
<title>56</title>
<path fill="none" stroke="#d6d856" stroke-width="2" stroke-dasharray="5,2" d="M3801,-108C3801,-108 3771,-108 3771,-108 3765,-108 3759,-102 3759,-96 3759,-96 3759,-84 3759,-84 3759,-78 3765,-72 3771,-72 3771,-72 3801,-72 3801,-72 3807,-72 3813,-78 3813,-84 3813,-84 3813,-96 3813,-96 3813,-102 3807,-108 3801,-108"/>
<text text-anchor="middle" x="3786" y="-87.5" font-family="sans" font-size="10.00" fill="#000000">fastp</text>
</g>
<!-- 56&#45;&gt;27 -->
<g id="edge28" class="edge">
<title>56&#45;&gt;27</title>
<path fill="none" stroke="#c0c0c0" stroke-width="2" d="M3786,-71.8314C3786,-64.131 3786,-54.9743 3786,-46.4166"/>
<polygon fill="#c0c0c0" stroke="#c0c0c0" stroke-width="2" points="3789.5001,-46.4132 3786,-36.4133 3782.5001,-46.4133 3789.5001,-46.4132"/>
</g>
<!-- 57 -->
<g id="node58" class="node">
<title>57</title>
<path fill="none" stroke="#d6d856" stroke-width="2" stroke-dasharray="5,2" d="M3939,-108C3939,-108 3909,-108 3909,-108 3903,-108 3897,-102 3897,-96 3897,-96 3897,-84 3897,-84 3897,-78 3903,-72 3909,-72 3909,-72 3939,-72 3939,-72 3945,-72 3951,-78 3951,-84 3951,-84 3951,-96 3951,-96 3951,-102 3945,-108 3939,-108"/>
<text text-anchor="middle" x="3924" y="-87.5" font-family="sans" font-size="10.00" fill="#000000">fastp</text>
</g>
<!-- 57&#45;&gt;28 -->
<g id="edge29" class="edge">
<title>57&#45;&gt;28</title>
<path fill="none" stroke="#c0c0c0" stroke-width="2" d="M3924,-71.8314C3924,-64.131 3924,-54.9743 3924,-46.4166"/>
<polygon fill="#c0c0c0" stroke="#c0c0c0" stroke-width="2" points="3927.5001,-46.4132 3924,-36.4133 3920.5001,-46.4133 3927.5001,-46.4132"/>
</g>
<!-- 58 -->
<g id="node59" class="node">
<title>58</title>
<path fill="none" stroke="#59d856" stroke-width="2" stroke-dasharray="5,2" d="M90,-180C90,-180 30,-180 30,-180 24,-180 18,-174 18,-168 18,-168 18,-156 18,-156 18,-150 24,-144 30,-144 30,-144 90,-144 90,-144 96,-144 102,-150 102,-156 102,-156 102,-168 102,-168 102,-174 96,-180 90,-180"/>
<text text-anchor="middle" x="60" y="-159.5" font-family="sans" font-size="10.00" fill="#000000">fasterq_dump</text>
</g>
<!-- 58&#45;&gt;29 -->
<g id="edge30" class="edge">
<title>58&#45;&gt;29</title>
<path fill="none" stroke="#c0c0c0" stroke-width="2" d="M60,-143.8314C60,-136.131 60,-126.9743 60,-118.4166"/>
<polygon fill="#c0c0c0" stroke="#c0c0c0" stroke-width="2" points="63.5001,-118.4132 60,-108.4133 56.5001,-118.4133 63.5001,-118.4132"/>
</g>
<!-- 59 -->
<g id="node60" class="node">
<title>59</title>
<path fill="none" stroke="#59d856" stroke-width="2" stroke-dasharray="5,2" d="M228,-180C228,-180 168,-180 168,-180 162,-180 156,-174 156,-168 156,-168 156,-156 156,-156 156,-150 162,-144 168,-144 168,-144 228,-144 228,-144 234,-144 240,-150 240,-156 240,-156 240,-168 240,-168 240,-174 234,-180 228,-180"/>
<text text-anchor="middle" x="198" y="-159.5" font-family="sans" font-size="10.00" fill="#000000">fasterq_dump</text>
</g>
<!-- 59&#45;&gt;30 -->
<g id="edge31" class="edge">
<title>59&#45;&gt;30</title>
<path fill="none" stroke="#c0c0c0" stroke-width="2" d="M198,-143.8314C198,-136.131 198,-126.9743 198,-118.4166"/>
<polygon fill="#c0c0c0" stroke="#c0c0c0" stroke-width="2" points="201.5001,-118.4132 198,-108.4133 194.5001,-118.4133 201.5001,-118.4132"/>
</g>
<!-- 60 -->
<g id="node61" class="node">
<title>60</title>
<path fill="none" stroke="#59d856" stroke-width="2" stroke-dasharray="5,2" d="M366,-180C366,-180 306,-180 306,-180 300,-180 294,-174 294,-168 294,-168 294,-156 294,-156 294,-150 300,-144 306,-144 306,-144 366,-144 366,-144 372,-144 378,-150 378,-156 378,-156 378,-168 378,-168 378,-174 372,-180 366,-180"/>
<text text-anchor="middle" x="336" y="-159.5" font-family="sans" font-size="10.00" fill="#000000">fasterq_dump</text>
</g>
<!-- 60&#45;&gt;31 -->
<g id="edge32" class="edge">
<title>60&#45;&gt;31</title>
<path fill="none" stroke="#c0c0c0" stroke-width="2" d="M336,-143.8314C336,-136.131 336,-126.9743 336,-118.4166"/>
<polygon fill="#c0c0c0" stroke="#c0c0c0" stroke-width="2" points="339.5001,-118.4132 336,-108.4133 332.5001,-118.4133 339.5001,-118.4132"/>
</g>
<!-- 61 -->
<g id="node62" class="node">
<title>61</title>
<path fill="none" stroke="#59d856" stroke-width="2" stroke-dasharray="5,2" d="M504,-180C504,-180 444,-180 444,-180 438,-180 432,-174 432,-168 432,-168 432,-156 432,-156 432,-150 438,-144 444,-144 444,-144 504,-144 504,-144 510,-144 516,-150 516,-156 516,-156 516,-168 516,-168 516,-174 510,-180 504,-180"/>
<text text-anchor="middle" x="474" y="-159.5" font-family="sans" font-size="10.00" fill="#000000">fasterq_dump</text>
</g>
<!-- 61&#45;&gt;32 -->
<g id="edge33" class="edge">
<title>61&#45;&gt;32</title>
<path fill="none" stroke="#c0c0c0" stroke-width="2" d="M474,-143.8314C474,-136.131 474,-126.9743 474,-118.4166"/>
<polygon fill="#c0c0c0" stroke="#c0c0c0" stroke-width="2" points="477.5001,-118.4132 474,-108.4133 470.5001,-118.4133 477.5001,-118.4132"/>
</g>
<!-- 62 -->
<g id="node63" class="node">
<title>62</title>
<path fill="none" stroke="#59d856" stroke-width="2" d="M642,-180C642,-180 582,-180 582,-180 576,-180 570,-174 570,-168 570,-168 570,-156 570,-156 570,-150 576,-144 582,-144 582,-144 642,-144 642,-144 648,-144 654,-150 654,-156 654,-156 654,-168 654,-168 654,-174 648,-180 642,-180"/>
<text text-anchor="middle" x="612" y="-159.5" font-family="sans" font-size="10.00" fill="#000000">fasterq_dump</text>
</g>
<!-- 62&#45;&gt;33 -->
<g id="edge34" class="edge">
<title>62&#45;&gt;33</title>
<path fill="none" stroke="#c0c0c0" stroke-width="2" d="M612,-143.8314C612,-136.131 612,-126.9743 612,-118.4166"/>
<polygon fill="#c0c0c0" stroke="#c0c0c0" stroke-width="2" points="615.5001,-118.4132 612,-108.4133 608.5001,-118.4133 615.5001,-118.4132"/>
</g>
<!-- 63 -->
<g id="node64" class="node">
<title>63</title>
<path fill="none" stroke="#59d856" stroke-width="2" d="M780,-180C780,-180 720,-180 720,-180 714,-180 708,-174 708,-168 708,-168 708,-156 708,-156 708,-150 714,-144 720,-144 720,-144 780,-144 780,-144 786,-144 792,-150 792,-156 792,-156 792,-168 792,-168 792,-174 786,-180 780,-180"/>
<text text-anchor="middle" x="750" y="-159.5" font-family="sans" font-size="10.00" fill="#000000">fasterq_dump</text>
</g>
<!-- 63&#45;&gt;34 -->
<g id="edge35" class="edge">
<title>63&#45;&gt;34</title>
<path fill="none" stroke="#c0c0c0" stroke-width="2" d="M750,-143.8314C750,-136.131 750,-126.9743 750,-118.4166"/>
<polygon fill="#c0c0c0" stroke="#c0c0c0" stroke-width="2" points="753.5001,-118.4132 750,-108.4133 746.5001,-118.4133 753.5001,-118.4132"/>
</g>
<!-- 64 -->
<g id="node65" class="node">
<title>64</title>
<path fill="none" stroke="#59d856" stroke-width="2" stroke-dasharray="5,2" d="M918,-180C918,-180 858,-180 858,-180 852,-180 846,-174 846,-168 846,-168 846,-156 846,-156 846,-150 852,-144 858,-144 858,-144 918,-144 918,-144 924,-144 930,-150 930,-156 930,-156 930,-168 930,-168 930,-174 924,-180 918,-180"/>
<text text-anchor="middle" x="888" y="-159.5" font-family="sans" font-size="10.00" fill="#000000">fasterq_dump</text>
</g>
<!-- 64&#45;&gt;35 -->
<g id="edge36" class="edge">
<title>64&#45;&gt;35</title>
<path fill="none" stroke="#c0c0c0" stroke-width="2" d="M888,-143.8314C888,-136.131 888,-126.9743 888,-118.4166"/>
<polygon fill="#c0c0c0" stroke="#c0c0c0" stroke-width="2" points="891.5001,-118.4132 888,-108.4133 884.5001,-118.4133 891.5001,-118.4132"/>
</g>
<!-- 65 -->
<g id="node66" class="node">
<title>65</title>
<path fill="none" stroke="#59d856" stroke-width="2" stroke-dasharray="5,2" d="M1056,-180C1056,-180 996,-180 996,-180 990,-180 984,-174 984,-168 984,-168 984,-156 984,-156 984,-150 990,-144 996,-144 996,-144 1056,-144 1056,-144 1062,-144 1068,-150 1068,-156 1068,-156 1068,-168 1068,-168 1068,-174 1062,-180 1056,-180"/>
<text text-anchor="middle" x="1026" y="-159.5" font-family="sans" font-size="10.00" fill="#000000">fasterq_dump</text>
</g>
<!-- 65&#45;&gt;36 -->
<g id="edge37" class="edge">
<title>65&#45;&gt;36</title>
<path fill="none" stroke="#c0c0c0" stroke-width="2" d="M1026,-143.8314C1026,-136.131 1026,-126.9743 1026,-118.4166"/>
<polygon fill="#c0c0c0" stroke="#c0c0c0" stroke-width="2" points="1029.5001,-118.4132 1026,-108.4133 1022.5001,-118.4133 1029.5001,-118.4132"/>
</g>
<!-- 66 -->
<g id="node67" class="node">
<title>66</title>
<path fill="none" stroke="#59d856" stroke-width="2" stroke-dasharray="5,2" d="M1194,-180C1194,-180 1134,-180 1134,-180 1128,-180 1122,-174 1122,-168 1122,-168 1122,-156 1122,-156 1122,-150 1128,-144 1134,-144 1134,-144 1194,-144 1194,-144 1200,-144 1206,-150 1206,-156 1206,-156 1206,-168 1206,-168 1206,-174 1200,-180 1194,-180"/>
<text text-anchor="middle" x="1164" y="-159.5" font-family="sans" font-size="10.00" fill="#000000">fasterq_dump</text>
</g>
<!-- 66&#45;&gt;37 -->
<g id="edge38" class="edge">
<title>66&#45;&gt;37</title>
<path fill="none" stroke="#c0c0c0" stroke-width="2" d="M1164,-143.8314C1164,-136.131 1164,-126.9743 1164,-118.4166"/>
<polygon fill="#c0c0c0" stroke="#c0c0c0" stroke-width="2" points="1167.5001,-118.4132 1164,-108.4133 1160.5001,-118.4133 1167.5001,-118.4132"/>
</g>
<!-- 67 -->
<g id="node68" class="node">
<title>67</title>
<path fill="none" stroke="#59d856" stroke-width="2" stroke-dasharray="5,2" d="M1332,-180C1332,-180 1272,-180 1272,-180 1266,-180 1260,-174 1260,-168 1260,-168 1260,-156 1260,-156 1260,-150 1266,-144 1272,-144 1272,-144 1332,-144 1332,-144 1338,-144 1344,-150 1344,-156 1344,-156 1344,-168 1344,-168 1344,-174 1338,-180 1332,-180"/>
<text text-anchor="middle" x="1302" y="-159.5" font-family="sans" font-size="10.00" fill="#000000">fasterq_dump</text>
</g>
<!-- 67&#45;&gt;38 -->
<g id="edge39" class="edge">
<title>67&#45;&gt;38</title>
<path fill="none" stroke="#c0c0c0" stroke-width="2" d="M1302,-143.8314C1302,-136.131 1302,-126.9743 1302,-118.4166"/>
<polygon fill="#c0c0c0" stroke="#c0c0c0" stroke-width="2" points="1305.5001,-118.4132 1302,-108.4133 1298.5001,-118.4133 1305.5001,-118.4132"/>
</g>
<!-- 68 -->
<g id="node69" class="node">
<title>68</title>
<path fill="none" stroke="#59d856" stroke-width="2" stroke-dasharray="5,2" d="M1470,-180C1470,-180 1410,-180 1410,-180 1404,-180 1398,-174 1398,-168 1398,-168 1398,-156 1398,-156 1398,-150 1404,-144 1410,-144 1410,-144 1470,-144 1470,-144 1476,-144 1482,-150 1482,-156 1482,-156 1482,-168 1482,-168 1482,-174 1476,-180 1470,-180"/>
<text text-anchor="middle" x="1440" y="-159.5" font-family="sans" font-size="10.00" fill="#000000">fasterq_dump</text>
</g>
<!-- 68&#45;&gt;39 -->
<g id="edge40" class="edge">
<title>68&#45;&gt;39</title>
<path fill="none" stroke="#c0c0c0" stroke-width="2" d="M1440,-143.8314C1440,-136.131 1440,-126.9743 1440,-118.4166"/>
<polygon fill="#c0c0c0" stroke="#c0c0c0" stroke-width="2" points="1443.5001,-118.4132 1440,-108.4133 1436.5001,-118.4133 1443.5001,-118.4132"/>
</g>
<!-- 69 -->
<g id="node70" class="node">
<title>69</title>
<path fill="none" stroke="#59d856" stroke-width="2" stroke-dasharray="5,2" d="M1608,-180C1608,-180 1548,-180 1548,-180 1542,-180 1536,-174 1536,-168 1536,-168 1536,-156 1536,-156 1536,-150 1542,-144 1548,-144 1548,-144 1608,-144 1608,-144 1614,-144 1620,-150 1620,-156 1620,-156 1620,-168 1620,-168 1620,-174 1614,-180 1608,-180"/>
<text text-anchor="middle" x="1578" y="-159.5" font-family="sans" font-size="10.00" fill="#000000">fasterq_dump</text>
</g>
<!-- 69&#45;&gt;40 -->
<g id="edge41" class="edge">
<title>69&#45;&gt;40</title>
<path fill="none" stroke="#c0c0c0" stroke-width="2" d="M1578,-143.8314C1578,-136.131 1578,-126.9743 1578,-118.4166"/>
<polygon fill="#c0c0c0" stroke="#c0c0c0" stroke-width="2" points="1581.5001,-118.4132 1578,-108.4133 1574.5001,-118.4133 1581.5001,-118.4132"/>
</g>
<!-- 70 -->
<g id="node71" class="node">
<title>70</title>
<path fill="none" stroke="#59d856" stroke-width="2" stroke-dasharray="5,2" d="M1746,-180C1746,-180 1686,-180 1686,-180 1680,-180 1674,-174 1674,-168 1674,-168 1674,-156 1674,-156 1674,-150 1680,-144 1686,-144 1686,-144 1746,-144 1746,-144 1752,-144 1758,-150 1758,-156 1758,-156 1758,-168 1758,-168 1758,-174 1752,-180 1746,-180"/>
<text text-anchor="middle" x="1716" y="-159.5" font-family="sans" font-size="10.00" fill="#000000">fasterq_dump</text>
</g>
<!-- 70&#45;&gt;41 -->
<g id="edge42" class="edge">
<title>70&#45;&gt;41</title>
<path fill="none" stroke="#c0c0c0" stroke-width="2" d="M1716,-143.8314C1716,-136.131 1716,-126.9743 1716,-118.4166"/>
<polygon fill="#c0c0c0" stroke="#c0c0c0" stroke-width="2" points="1719.5001,-118.4132 1716,-108.4133 1712.5001,-118.4133 1719.5001,-118.4132"/>
</g>
<!-- 71 -->
<g id="node72" class="node">
<title>71</title>
<path fill="none" stroke="#59d856" stroke-width="2" stroke-dasharray="5,2" d="M1884,-180C1884,-180 1824,-180 1824,-180 1818,-180 1812,-174 1812,-168 1812,-168 1812,-156 1812,-156 1812,-150 1818,-144 1824,-144 1824,-144 1884,-144 1884,-144 1890,-144 1896,-150 1896,-156 1896,-156 1896,-168 1896,-168 1896,-174 1890,-180 1884,-180"/>
<text text-anchor="middle" x="1854" y="-159.5" font-family="sans" font-size="10.00" fill="#000000">fasterq_dump</text>
</g>
<!-- 71&#45;&gt;42 -->
<g id="edge43" class="edge">
<title>71&#45;&gt;42</title>
<path fill="none" stroke="#c0c0c0" stroke-width="2" d="M1854,-143.8314C1854,-136.131 1854,-126.9743 1854,-118.4166"/>
<polygon fill="#c0c0c0" stroke="#c0c0c0" stroke-width="2" points="1857.5001,-118.4132 1854,-108.4133 1850.5001,-118.4133 1857.5001,-118.4132"/>
</g>
<!-- 72 -->
<g id="node73" class="node">
<title>72</title>
<path fill="none" stroke="#59d856" stroke-width="2" stroke-dasharray="5,2" d="M2022,-180C2022,-180 1962,-180 1962,-180 1956,-180 1950,-174 1950,-168 1950,-168 1950,-156 1950,-156 1950,-150 1956,-144 1962,-144 1962,-144 2022,-144 2022,-144 2028,-144 2034,-150 2034,-156 2034,-156 2034,-168 2034,-168 2034,-174 2028,-180 2022,-180"/>
<text text-anchor="middle" x="1992" y="-159.5" font-family="sans" font-size="10.00" fill="#000000">fasterq_dump</text>
</g>
<!-- 72&#45;&gt;43 -->
<g id="edge44" class="edge">
<title>72&#45;&gt;43</title>
<path fill="none" stroke="#c0c0c0" stroke-width="2" d="M1992,-143.8314C1992,-136.131 1992,-126.9743 1992,-118.4166"/>
<polygon fill="#c0c0c0" stroke="#c0c0c0" stroke-width="2" points="1995.5001,-118.4132 1992,-108.4133 1988.5001,-118.4133 1995.5001,-118.4132"/>
</g>
<!-- 73 -->
<g id="node74" class="node">
<title>73</title>
<path fill="none" stroke="#59d856" stroke-width="2" d="M2160,-180C2160,-180 2100,-180 2100,-180 2094,-180 2088,-174 2088,-168 2088,-168 2088,-156 2088,-156 2088,-150 2094,-144 2100,-144 2100,-144 2160,-144 2160,-144 2166,-144 2172,-150 2172,-156 2172,-156 2172,-168 2172,-168 2172,-174 2166,-180 2160,-180"/>
<text text-anchor="middle" x="2130" y="-159.5" font-family="sans" font-size="10.00" fill="#000000">fasterq_dump</text>
</g>
<!-- 73&#45;&gt;44 -->
<g id="edge45" class="edge">
<title>73&#45;&gt;44</title>
<path fill="none" stroke="#c0c0c0" stroke-width="2" d="M2130,-143.8314C2130,-136.131 2130,-126.9743 2130,-118.4166"/>
<polygon fill="#c0c0c0" stroke="#c0c0c0" stroke-width="2" points="2133.5001,-118.4132 2130,-108.4133 2126.5001,-118.4133 2133.5001,-118.4132"/>
</g>
<!-- 74 -->
<g id="node75" class="node">
<title>74</title>
<path fill="none" stroke="#59d856" stroke-width="2" stroke-dasharray="5,2" d="M2298,-180C2298,-180 2238,-180 2238,-180 2232,-180 2226,-174 2226,-168 2226,-168 2226,-156 2226,-156 2226,-150 2232,-144 2238,-144 2238,-144 2298,-144 2298,-144 2304,-144 2310,-150 2310,-156 2310,-156 2310,-168 2310,-168 2310,-174 2304,-180 2298,-180"/>
<text text-anchor="middle" x="2268" y="-159.5" font-family="sans" font-size="10.00" fill="#000000">fasterq_dump</text>
</g>
<!-- 74&#45;&gt;45 -->
<g id="edge46" class="edge">
<title>74&#45;&gt;45</title>
<path fill="none" stroke="#c0c0c0" stroke-width="2" d="M2268,-143.8314C2268,-136.131 2268,-126.9743 2268,-118.4166"/>
<polygon fill="#c0c0c0" stroke="#c0c0c0" stroke-width="2" points="2271.5001,-118.4132 2268,-108.4133 2264.5001,-118.4133 2271.5001,-118.4132"/>
</g>
<!-- 75 -->
<g id="node76" class="node">
<title>75</title>
<path fill="none" stroke="#59d856" stroke-width="2" d="M2436,-180C2436,-180 2376,-180 2376,-180 2370,-180 2364,-174 2364,-168 2364,-168 2364,-156 2364,-156 2364,-150 2370,-144 2376,-144 2376,-144 2436,-144 2436,-144 2442,-144 2448,-150 2448,-156 2448,-156 2448,-168 2448,-168 2448,-174 2442,-180 2436,-180"/>
<text text-anchor="middle" x="2406" y="-159.5" font-family="sans" font-size="10.00" fill="#000000">fasterq_dump</text>
</g>
<!-- 75&#45;&gt;46 -->
<g id="edge47" class="edge">
<title>75&#45;&gt;46</title>
<path fill="none" stroke="#c0c0c0" stroke-width="2" d="M2406,-143.8314C2406,-136.131 2406,-126.9743 2406,-118.4166"/>
<polygon fill="#c0c0c0" stroke="#c0c0c0" stroke-width="2" points="2409.5001,-118.4132 2406,-108.4133 2402.5001,-118.4133 2409.5001,-118.4132"/>
</g>
<!-- 76 -->
<g id="node77" class="node">
<title>76</title>
<path fill="none" stroke="#59d856" stroke-width="2" stroke-dasharray="5,2" d="M2574,-180C2574,-180 2514,-180 2514,-180 2508,-180 2502,-174 2502,-168 2502,-168 2502,-156 2502,-156 2502,-150 2508,-144 2514,-144 2514,-144 2574,-144 2574,-144 2580,-144 2586,-150 2586,-156 2586,-156 2586,-168 2586,-168 2586,-174 2580,-180 2574,-180"/>
<text text-anchor="middle" x="2544" y="-159.5" font-family="sans" font-size="10.00" fill="#000000">fasterq_dump</text>
</g>
<!-- 76&#45;&gt;47 -->
<g id="edge48" class="edge">
<title>76&#45;&gt;47</title>
<path fill="none" stroke="#c0c0c0" stroke-width="2" d="M2544,-143.8314C2544,-136.131 2544,-126.9743 2544,-118.4166"/>
<polygon fill="#c0c0c0" stroke="#c0c0c0" stroke-width="2" points="2547.5001,-118.4132 2544,-108.4133 2540.5001,-118.4133 2547.5001,-118.4132"/>
</g>
<!-- 77 -->
<g id="node78" class="node">
<title>77</title>
<path fill="none" stroke="#59d856" stroke-width="2" stroke-dasharray="5,2" d="M2712,-180C2712,-180 2652,-180 2652,-180 2646,-180 2640,-174 2640,-168 2640,-168 2640,-156 2640,-156 2640,-150 2646,-144 2652,-144 2652,-144 2712,-144 2712,-144 2718,-144 2724,-150 2724,-156 2724,-156 2724,-168 2724,-168 2724,-174 2718,-180 2712,-180"/>
<text text-anchor="middle" x="2682" y="-159.5" font-family="sans" font-size="10.00" fill="#000000">fasterq_dump</text>
</g>
<!-- 77&#45;&gt;48 -->
<g id="edge49" class="edge">
<title>77&#45;&gt;48</title>
<path fill="none" stroke="#c0c0c0" stroke-width="2" d="M2682,-143.8314C2682,-136.131 2682,-126.9743 2682,-118.4166"/>
<polygon fill="#c0c0c0" stroke="#c0c0c0" stroke-width="2" points="2685.5001,-118.4132 2682,-108.4133 2678.5001,-118.4133 2685.5001,-118.4132"/>
</g>
<!-- 78 -->
<g id="node79" class="node">
<title>78</title>
<path fill="none" stroke="#59d856" stroke-width="2" stroke-dasharray="5,2" d="M2850,-180C2850,-180 2790,-180 2790,-180 2784,-180 2778,-174 2778,-168 2778,-168 2778,-156 2778,-156 2778,-150 2784,-144 2790,-144 2790,-144 2850,-144 2850,-144 2856,-144 2862,-150 2862,-156 2862,-156 2862,-168 2862,-168 2862,-174 2856,-180 2850,-180"/>
<text text-anchor="middle" x="2820" y="-159.5" font-family="sans" font-size="10.00" fill="#000000">fasterq_dump</text>
</g>
<!-- 78&#45;&gt;49 -->
<g id="edge50" class="edge">
<title>78&#45;&gt;49</title>
<path fill="none" stroke="#c0c0c0" stroke-width="2" d="M2820,-143.8314C2820,-136.131 2820,-126.9743 2820,-118.4166"/>
<polygon fill="#c0c0c0" stroke="#c0c0c0" stroke-width="2" points="2823.5001,-118.4132 2820,-108.4133 2816.5001,-118.4133 2823.5001,-118.4132"/>
</g>
<!-- 79 -->
<g id="node80" class="node">
<title>79</title>
<path fill="none" stroke="#59d856" stroke-width="2" stroke-dasharray="5,2" d="M2988,-180C2988,-180 2928,-180 2928,-180 2922,-180 2916,-174 2916,-168 2916,-168 2916,-156 2916,-156 2916,-150 2922,-144 2928,-144 2928,-144 2988,-144 2988,-144 2994,-144 3000,-150 3000,-156 3000,-156 3000,-168 3000,-168 3000,-174 2994,-180 2988,-180"/>
<text text-anchor="middle" x="2958" y="-159.5" font-family="sans" font-size="10.00" fill="#000000">fasterq_dump</text>
</g>
<!-- 79&#45;&gt;50 -->
<g id="edge51" class="edge">
<title>79&#45;&gt;50</title>
<path fill="none" stroke="#c0c0c0" stroke-width="2" d="M2958,-143.8314C2958,-136.131 2958,-126.9743 2958,-118.4166"/>
<polygon fill="#c0c0c0" stroke="#c0c0c0" stroke-width="2" points="2961.5001,-118.4132 2958,-108.4133 2954.5001,-118.4133 2961.5001,-118.4132"/>
</g>
<!-- 80 -->
<g id="node81" class="node">
<title>80</title>
<path fill="none" stroke="#59d856" stroke-width="2" stroke-dasharray="5,2" d="M3126,-180C3126,-180 3066,-180 3066,-180 3060,-180 3054,-174 3054,-168 3054,-168 3054,-156 3054,-156 3054,-150 3060,-144 3066,-144 3066,-144 3126,-144 3126,-144 3132,-144 3138,-150 3138,-156 3138,-156 3138,-168 3138,-168 3138,-174 3132,-180 3126,-180"/>
<text text-anchor="middle" x="3096" y="-159.5" font-family="sans" font-size="10.00" fill="#000000">fasterq_dump</text>
</g>
<!-- 80&#45;&gt;51 -->
<g id="edge52" class="edge">
<title>80&#45;&gt;51</title>
<path fill="none" stroke="#c0c0c0" stroke-width="2" d="M3096,-143.8314C3096,-136.131 3096,-126.9743 3096,-118.4166"/>
<polygon fill="#c0c0c0" stroke="#c0c0c0" stroke-width="2" points="3099.5001,-118.4132 3096,-108.4133 3092.5001,-118.4133 3099.5001,-118.4132"/>
</g>
<!-- 81 -->
<g id="node82" class="node">
<title>81</title>
<path fill="none" stroke="#59d856" stroke-width="2" stroke-dasharray="5,2" d="M3264,-180C3264,-180 3204,-180 3204,-180 3198,-180 3192,-174 3192,-168 3192,-168 3192,-156 3192,-156 3192,-150 3198,-144 3204,-144 3204,-144 3264,-144 3264,-144 3270,-144 3276,-150 3276,-156 3276,-156 3276,-168 3276,-168 3276,-174 3270,-180 3264,-180"/>
<text text-anchor="middle" x="3234" y="-159.5" font-family="sans" font-size="10.00" fill="#000000">fasterq_dump</text>
</g>
<!-- 81&#45;&gt;52 -->
<g id="edge53" class="edge">
<title>81&#45;&gt;52</title>
<path fill="none" stroke="#c0c0c0" stroke-width="2" d="M3234,-143.8314C3234,-136.131 3234,-126.9743 3234,-118.4166"/>
<polygon fill="#c0c0c0" stroke="#c0c0c0" stroke-width="2" points="3237.5001,-118.4132 3234,-108.4133 3230.5001,-118.4133 3237.5001,-118.4132"/>
</g>
<!-- 82 -->
<g id="node83" class="node">
<title>82</title>
<path fill="none" stroke="#59d856" stroke-width="2" stroke-dasharray="5,2" d="M3402,-180C3402,-180 3342,-180 3342,-180 3336,-180 3330,-174 3330,-168 3330,-168 3330,-156 3330,-156 3330,-150 3336,-144 3342,-144 3342,-144 3402,-144 3402,-144 3408,-144 3414,-150 3414,-156 3414,-156 3414,-168 3414,-168 3414,-174 3408,-180 3402,-180"/>
<text text-anchor="middle" x="3372" y="-159.5" font-family="sans" font-size="10.00" fill="#000000">fasterq_dump</text>
</g>
<!-- 82&#45;&gt;53 -->
<g id="edge54" class="edge">
<title>82&#45;&gt;53</title>
<path fill="none" stroke="#c0c0c0" stroke-width="2" d="M3372,-143.8314C3372,-136.131 3372,-126.9743 3372,-118.4166"/>
<polygon fill="#c0c0c0" stroke="#c0c0c0" stroke-width="2" points="3375.5001,-118.4132 3372,-108.4133 3368.5001,-118.4133 3375.5001,-118.4132"/>
</g>
<!-- 83 -->
<g id="node84" class="node">
<title>83</title>
<path fill="none" stroke="#59d856" stroke-width="2" stroke-dasharray="5,2" d="M3540,-180C3540,-180 3480,-180 3480,-180 3474,-180 3468,-174 3468,-168 3468,-168 3468,-156 3468,-156 3468,-150 3474,-144 3480,-144 3480,-144 3540,-144 3540,-144 3546,-144 3552,-150 3552,-156 3552,-156 3552,-168 3552,-168 3552,-174 3546,-180 3540,-180"/>
<text text-anchor="middle" x="3510" y="-159.5" font-family="sans" font-size="10.00" fill="#000000">fasterq_dump</text>
</g>
<!-- 83&#45;&gt;54 -->
<g id="edge55" class="edge">
<title>83&#45;&gt;54</title>
<path fill="none" stroke="#c0c0c0" stroke-width="2" d="M3510,-143.8314C3510,-136.131 3510,-126.9743 3510,-118.4166"/>
<polygon fill="#c0c0c0" stroke="#c0c0c0" stroke-width="2" points="3513.5001,-118.4132 3510,-108.4133 3506.5001,-118.4133 3513.5001,-118.4132"/>
</g>
<!-- 84 -->
<g id="node85" class="node">
<title>84</title>
<path fill="none" stroke="#59d856" stroke-width="2" stroke-dasharray="5,2" d="M3678,-180C3678,-180 3618,-180 3618,-180 3612,-180 3606,-174 3606,-168 3606,-168 3606,-156 3606,-156 3606,-150 3612,-144 3618,-144 3618,-144 3678,-144 3678,-144 3684,-144 3690,-150 3690,-156 3690,-156 3690,-168 3690,-168 3690,-174 3684,-180 3678,-180"/>
<text text-anchor="middle" x="3648" y="-159.5" font-family="sans" font-size="10.00" fill="#000000">fasterq_dump</text>
</g>
<!-- 84&#45;&gt;55 -->
<g id="edge56" class="edge">
<title>84&#45;&gt;55</title>
<path fill="none" stroke="#c0c0c0" stroke-width="2" d="M3648,-143.8314C3648,-136.131 3648,-126.9743 3648,-118.4166"/>
<polygon fill="#c0c0c0" stroke="#c0c0c0" stroke-width="2" points="3651.5001,-118.4132 3648,-108.4133 3644.5001,-118.4133 3651.5001,-118.4132"/>
</g>
<!-- 85 -->
<g id="node86" class="node">
<title>85</title>
<path fill="none" stroke="#59d856" stroke-width="2" stroke-dasharray="5,2" d="M3816,-180C3816,-180 3756,-180 3756,-180 3750,-180 3744,-174 3744,-168 3744,-168 3744,-156 3744,-156 3744,-150 3750,-144 3756,-144 3756,-144 3816,-144 3816,-144 3822,-144 3828,-150 3828,-156 3828,-156 3828,-168 3828,-168 3828,-174 3822,-180 3816,-180"/>
<text text-anchor="middle" x="3786" y="-159.5" font-family="sans" font-size="10.00" fill="#000000">fasterq_dump</text>
</g>
<!-- 85&#45;&gt;56 -->
<g id="edge57" class="edge">
<title>85&#45;&gt;56</title>
<path fill="none" stroke="#c0c0c0" stroke-width="2" d="M3786,-143.8314C3786,-136.131 3786,-126.9743 3786,-118.4166"/>
<polygon fill="#c0c0c0" stroke="#c0c0c0" stroke-width="2" points="3789.5001,-118.4132 3786,-108.4133 3782.5001,-118.4133 3789.5001,-118.4132"/>
</g>
<!-- 86 -->
<g id="node87" class="node">
<title>86</title>
<path fill="none" stroke="#59d856" stroke-width="2" stroke-dasharray="5,2" d="M3954,-180C3954,-180 3894,-180 3894,-180 3888,-180 3882,-174 3882,-168 3882,-168 3882,-156 3882,-156 3882,-150 3888,-144 3894,-144 3894,-144 3954,-144 3954,-144 3960,-144 3966,-150 3966,-156 3966,-156 3966,-168 3966,-168 3966,-174 3960,-180 3954,-180"/>
<text text-anchor="middle" x="3924" y="-159.5" font-family="sans" font-size="10.00" fill="#000000">fasterq_dump</text>
</g>
<!-- 86&#45;&gt;57 -->
<g id="edge58" class="edge">
<title>86&#45;&gt;57</title>
<path fill="none" stroke="#c0c0c0" stroke-width="2" d="M3924,-143.8314C3924,-136.131 3924,-126.9743 3924,-118.4166"/>
<polygon fill="#c0c0c0" stroke="#c0c0c0" stroke-width="2" points="3927.5001,-118.4132 3924,-108.4133 3920.5001,-118.4133 3927.5001,-118.4132"/>
</g>
<!-- 87 -->
<g id="node88" class="node">
<title>87</title>
<path fill="none" stroke="#d85656" stroke-width="2" stroke-dasharray="5,2" d="M108,-252C108,-252 12,-252 12,-252 6,-252 0,-246 0,-240 0,-240 0,-228 0,-228 0,-222 6,-216 12,-216 12,-216 108,-216 108,-216 114,-216 120,-222 120,-228 120,-228 120,-240 120,-240 120,-246 114,-252 108,-252"/>
<text text-anchor="middle" x="60" y="-237" font-family="sans" font-size="10.00" fill="#000000">prefetch</text>
<text text-anchor="middle" x="60" y="-226" font-family="sans" font-size="10.00" fill="#000000">sample: SRR9326184</text>
</g>
<!-- 87&#45;&gt;58 -->
<g id="edge59" class="edge">
<title>87&#45;&gt;58</title>
<path fill="none" stroke="#c0c0c0" stroke-width="2" d="M60,-215.8314C60,-208.131 60,-198.9743 60,-190.4166"/>
<polygon fill="#c0c0c0" stroke="#c0c0c0" stroke-width="2" points="63.5001,-190.4132 60,-180.4133 56.5001,-190.4133 63.5001,-190.4132"/>
</g>
<!-- 88 -->
<g id="node89" class="node">
<title>88</title>
<path fill="none" stroke="#d85656" stroke-width="2" stroke-dasharray="5,2" d="M246,-252C246,-252 150,-252 150,-252 144,-252 138,-246 138,-240 138,-240 138,-228 138,-228 138,-222 144,-216 150,-216 150,-216 246,-216 246,-216 252,-216 258,-222 258,-228 258,-228 258,-240 258,-240 258,-246 252,-252 246,-252"/>
<text text-anchor="middle" x="198" y="-237" font-family="sans" font-size="10.00" fill="#000000">prefetch</text>
<text text-anchor="middle" x="198" y="-226" font-family="sans" font-size="10.00" fill="#000000">sample: SRR9326200</text>
</g>
<!-- 88&#45;&gt;59 -->
<g id="edge60" class="edge">
<title>88&#45;&gt;59</title>
<path fill="none" stroke="#c0c0c0" stroke-width="2" d="M198,-215.8314C198,-208.131 198,-198.9743 198,-190.4166"/>
<polygon fill="#c0c0c0" stroke="#c0c0c0" stroke-width="2" points="201.5001,-190.4132 198,-180.4133 194.5001,-190.4133 201.5001,-190.4132"/>
</g>
<!-- 89 -->
<g id="node90" class="node">
<title>89</title>
<path fill="none" stroke="#d85656" stroke-width="2" stroke-dasharray="5,2" d="M384,-252C384,-252 288,-252 288,-252 282,-252 276,-246 276,-240 276,-240 276,-228 276,-228 276,-222 282,-216 288,-216 288,-216 384,-216 384,-216 390,-216 396,-222 396,-228 396,-228 396,-240 396,-240 396,-246 390,-252 384,-252"/>
<text text-anchor="middle" x="336" y="-237" font-family="sans" font-size="10.00" fill="#000000">prefetch</text>
<text text-anchor="middle" x="336" y="-226" font-family="sans" font-size="10.00" fill="#000000">sample: SRR9326187</text>
</g>
<!-- 89&#45;&gt;60 -->
<g id="edge61" class="edge">
<title>89&#45;&gt;60</title>
<path fill="none" stroke="#c0c0c0" stroke-width="2" d="M336,-215.8314C336,-208.131 336,-198.9743 336,-190.4166"/>
<polygon fill="#c0c0c0" stroke="#c0c0c0" stroke-width="2" points="339.5001,-190.4132 336,-180.4133 332.5001,-190.4133 339.5001,-190.4132"/>
</g>
<!-- 90 -->
<g id="node91" class="node">
<title>90</title>
<path fill="none" stroke="#d85656" stroke-width="2" stroke-dasharray="5,2" d="M522,-252C522,-252 426,-252 426,-252 420,-252 414,-246 414,-240 414,-240 414,-228 414,-228 414,-222 420,-216 426,-216 426,-216 522,-216 522,-216 528,-216 534,-222 534,-228 534,-228 534,-240 534,-240 534,-246 528,-252 522,-252"/>
<text text-anchor="middle" x="474" y="-237" font-family="sans" font-size="10.00" fill="#000000">prefetch</text>
<text text-anchor="middle" x="474" y="-226" font-family="sans" font-size="10.00" fill="#000000">sample: SRR9326183</text>
</g>
<!-- 90&#45;&gt;61 -->
<g id="edge62" class="edge">
<title>90&#45;&gt;61</title>
<path fill="none" stroke="#c0c0c0" stroke-width="2" d="M474,-215.8314C474,-208.131 474,-198.9743 474,-190.4166"/>
<polygon fill="#c0c0c0" stroke="#c0c0c0" stroke-width="2" points="477.5001,-190.4132 474,-180.4133 470.5001,-190.4133 477.5001,-190.4132"/>
</g>
<!-- 91 -->
<g id="node92" class="node">
<title>91</title>
<path fill="none" stroke="#d85656" stroke-width="2" d="M660,-252C660,-252 564,-252 564,-252 558,-252 552,-246 552,-240 552,-240 552,-228 552,-228 552,-222 558,-216 564,-216 564,-216 660,-216 660,-216 666,-216 672,-222 672,-228 672,-228 672,-240 672,-240 672,-246 666,-252 660,-252"/>
<text text-anchor="middle" x="612" y="-237" font-family="sans" font-size="10.00" fill="#000000">prefetch</text>
<text text-anchor="middle" x="612" y="-226" font-family="sans" font-size="10.00" fill="#000000">sample: SRR9326188</text>
</g>
<!-- 91&#45;&gt;62 -->
<g id="edge63" class="edge">
<title>91&#45;&gt;62</title>
<path fill="none" stroke="#c0c0c0" stroke-width="2" d="M612,-215.8314C612,-208.131 612,-198.9743 612,-190.4166"/>
<polygon fill="#c0c0c0" stroke="#c0c0c0" stroke-width="2" points="615.5001,-190.4132 612,-180.4133 608.5001,-190.4133 615.5001,-190.4132"/>
</g>
<!-- 92 -->
<g id="node93" class="node">
<title>92</title>
<path fill="none" stroke="#d85656" stroke-width="2" d="M798,-252C798,-252 702,-252 702,-252 696,-252 690,-246 690,-240 690,-240 690,-228 690,-228 690,-222 696,-216 702,-216 702,-216 798,-216 798,-216 804,-216 810,-222 810,-228 810,-228 810,-240 810,-240 810,-246 804,-252 798,-252"/>
<text text-anchor="middle" x="750" y="-237" font-family="sans" font-size="10.00" fill="#000000">prefetch</text>
<text text-anchor="middle" x="750" y="-226" font-family="sans" font-size="10.00" fill="#000000">sample: SRR9326193</text>
</g>
<!-- 92&#45;&gt;63 -->
<g id="edge64" class="edge">
<title>92&#45;&gt;63</title>
<path fill="none" stroke="#c0c0c0" stroke-width="2" d="M750,-215.8314C750,-208.131 750,-198.9743 750,-190.4166"/>
<polygon fill="#c0c0c0" stroke="#c0c0c0" stroke-width="2" points="753.5001,-190.4132 750,-180.4133 746.5001,-190.4133 753.5001,-190.4132"/>
</g>
<!-- 93 -->
<g id="node94" class="node">
<title>93</title>
<path fill="none" stroke="#d85656" stroke-width="2" stroke-dasharray="5,2" d="M936,-252C936,-252 840,-252 840,-252 834,-252 828,-246 828,-240 828,-240 828,-228 828,-228 828,-222 834,-216 840,-216 840,-216 936,-216 936,-216 942,-216 948,-222 948,-228 948,-228 948,-240 948,-240 948,-246 942,-252 936,-252"/>
<text text-anchor="middle" x="888" y="-237" font-family="sans" font-size="10.00" fill="#000000">prefetch</text>
<text text-anchor="middle" x="888" y="-226" font-family="sans" font-size="10.00" fill="#000000">sample: SRR9326185</text>
</g>
<!-- 93&#45;&gt;64 -->
<g id="edge65" class="edge">
<title>93&#45;&gt;64</title>
<path fill="none" stroke="#c0c0c0" stroke-width="2" d="M888,-215.8314C888,-208.131 888,-198.9743 888,-190.4166"/>
<polygon fill="#c0c0c0" stroke="#c0c0c0" stroke-width="2" points="891.5001,-190.4132 888,-180.4133 884.5001,-190.4133 891.5001,-190.4132"/>
</g>
<!-- 94 -->
<g id="node95" class="node">
<title>94</title>
<path fill="none" stroke="#d85656" stroke-width="2" stroke-dasharray="5,2" d="M1074,-252C1074,-252 978,-252 978,-252 972,-252 966,-246 966,-240 966,-240 966,-228 966,-228 966,-222 972,-216 978,-216 978,-216 1074,-216 1074,-216 1080,-216 1086,-222 1086,-228 1086,-228 1086,-240 1086,-240 1086,-246 1080,-252 1074,-252"/>
<text text-anchor="middle" x="1026" y="-237" font-family="sans" font-size="10.00" fill="#000000">prefetch</text>
<text text-anchor="middle" x="1026" y="-226" font-family="sans" font-size="10.00" fill="#000000">sample: SRR9326198</text>
</g>
<!-- 94&#45;&gt;65 -->
<g id="edge66" class="edge">
<title>94&#45;&gt;65</title>
<path fill="none" stroke="#c0c0c0" stroke-width="2" d="M1026,-215.8314C1026,-208.131 1026,-198.9743 1026,-190.4166"/>
<polygon fill="#c0c0c0" stroke="#c0c0c0" stroke-width="2" points="1029.5001,-190.4132 1026,-180.4133 1022.5001,-190.4133 1029.5001,-190.4132"/>
</g>
<!-- 95 -->
<g id="node96" class="node">
<title>95</title>
<path fill="none" stroke="#d85656" stroke-width="2" stroke-dasharray="5,2" d="M1212,-252C1212,-252 1116,-252 1116,-252 1110,-252 1104,-246 1104,-240 1104,-240 1104,-228 1104,-228 1104,-222 1110,-216 1116,-216 1116,-216 1212,-216 1212,-216 1218,-216 1224,-222 1224,-228 1224,-228 1224,-240 1224,-240 1224,-246 1218,-252 1212,-252"/>
<text text-anchor="middle" x="1164" y="-237" font-family="sans" font-size="10.00" fill="#000000">prefetch</text>
<text text-anchor="middle" x="1164" y="-226" font-family="sans" font-size="10.00" fill="#000000">sample: SRR9326190</text>
</g>
<!-- 95&#45;&gt;66 -->
<g id="edge67" class="edge">
<title>95&#45;&gt;66</title>
<path fill="none" stroke="#c0c0c0" stroke-width="2" d="M1164,-215.8314C1164,-208.131 1164,-198.9743 1164,-190.4166"/>
<polygon fill="#c0c0c0" stroke="#c0c0c0" stroke-width="2" points="1167.5001,-190.4132 1164,-180.4133 1160.5001,-190.4133 1167.5001,-190.4132"/>
</g>
<!-- 96 -->
<g id="node97" class="node">
<title>96</title>
<path fill="none" stroke="#d85656" stroke-width="2" stroke-dasharray="5,2" d="M1350,-252C1350,-252 1254,-252 1254,-252 1248,-252 1242,-246 1242,-240 1242,-240 1242,-228 1242,-228 1242,-222 1248,-216 1254,-216 1254,-216 1350,-216 1350,-216 1356,-216 1362,-222 1362,-228 1362,-228 1362,-240 1362,-240 1362,-246 1356,-252 1350,-252"/>
<text text-anchor="middle" x="1302" y="-237" font-family="sans" font-size="10.00" fill="#000000">prefetch</text>
<text text-anchor="middle" x="1302" y="-226" font-family="sans" font-size="10.00" fill="#000000">sample: SRR9326186</text>
</g>
<!-- 96&#45;&gt;67 -->
<g id="edge68" class="edge">
<title>96&#45;&gt;67</title>
<path fill="none" stroke="#c0c0c0" stroke-width="2" d="M1302,-215.8314C1302,-208.131 1302,-198.9743 1302,-190.4166"/>
<polygon fill="#c0c0c0" stroke="#c0c0c0" stroke-width="2" points="1305.5001,-190.4132 1302,-180.4133 1298.5001,-190.4133 1305.5001,-190.4132"/>
</g>
<!-- 97 -->
<g id="node98" class="node">
<title>97</title>
<path fill="none" stroke="#d85656" stroke-width="2" stroke-dasharray="5,2" d="M1488,-252C1488,-252 1392,-252 1392,-252 1386,-252 1380,-246 1380,-240 1380,-240 1380,-228 1380,-228 1380,-222 1386,-216 1392,-216 1392,-216 1488,-216 1488,-216 1494,-216 1500,-222 1500,-228 1500,-228 1500,-240 1500,-240 1500,-246 1494,-252 1488,-252"/>
<text text-anchor="middle" x="1440" y="-237" font-family="sans" font-size="10.00" fill="#000000">prefetch</text>
<text text-anchor="middle" x="1440" y="-226" font-family="sans" font-size="10.00" fill="#000000">sample: SRR9326192</text>
</g>
<!-- 97&#45;&gt;68 -->
<g id="edge69" class="edge">
<title>97&#45;&gt;68</title>
<path fill="none" stroke="#c0c0c0" stroke-width="2" d="M1440,-215.8314C1440,-208.131 1440,-198.9743 1440,-190.4166"/>
<polygon fill="#c0c0c0" stroke="#c0c0c0" stroke-width="2" points="1443.5001,-190.4132 1440,-180.4133 1436.5001,-190.4133 1443.5001,-190.4132"/>
</g>
<!-- 98 -->
<g id="node99" class="node">
<title>98</title>
<path fill="none" stroke="#d85656" stroke-width="2" stroke-dasharray="5,2" d="M1626,-252C1626,-252 1530,-252 1530,-252 1524,-252 1518,-246 1518,-240 1518,-240 1518,-228 1518,-228 1518,-222 1524,-216 1530,-216 1530,-216 1626,-216 1626,-216 1632,-216 1638,-222 1638,-228 1638,-228 1638,-240 1638,-240 1638,-246 1632,-252 1626,-252"/>
<text text-anchor="middle" x="1578" y="-237" font-family="sans" font-size="10.00" fill="#000000">prefetch</text>
<text text-anchor="middle" x="1578" y="-226" font-family="sans" font-size="10.00" fill="#000000">sample: SRR9326205</text>
</g>
<!-- 98&#45;&gt;69 -->
<g id="edge70" class="edge">
<title>98&#45;&gt;69</title>
<path fill="none" stroke="#c0c0c0" stroke-width="2" d="M1578,-215.8314C1578,-208.131 1578,-198.9743 1578,-190.4166"/>
<polygon fill="#c0c0c0" stroke="#c0c0c0" stroke-width="2" points="1581.5001,-190.4132 1578,-180.4133 1574.5001,-190.4133 1581.5001,-190.4132"/>
</g>
<!-- 99 -->
<g id="node100" class="node">
<title>99</title>
<path fill="none" stroke="#d85656" stroke-width="2" stroke-dasharray="5,2" d="M1764,-252C1764,-252 1668,-252 1668,-252 1662,-252 1656,-246 1656,-240 1656,-240 1656,-228 1656,-228 1656,-222 1662,-216 1668,-216 1668,-216 1764,-216 1764,-216 1770,-216 1776,-222 1776,-228 1776,-228 1776,-240 1776,-240 1776,-246 1770,-252 1764,-252"/>
<text text-anchor="middle" x="1716" y="-237" font-family="sans" font-size="10.00" fill="#000000">prefetch</text>
<text text-anchor="middle" x="1716" y="-226" font-family="sans" font-size="10.00" fill="#000000">sample: SRR9326201</text>
</g>
<!-- 99&#45;&gt;70 -->
<g id="edge71" class="edge">
<title>99&#45;&gt;70</title>
<path fill="none" stroke="#c0c0c0" stroke-width="2" d="M1716,-215.8314C1716,-208.131 1716,-198.9743 1716,-190.4166"/>
<polygon fill="#c0c0c0" stroke="#c0c0c0" stroke-width="2" points="1719.5001,-190.4132 1716,-180.4133 1712.5001,-190.4133 1719.5001,-190.4132"/>
</g>
<!-- 100 -->
<g id="node101" class="node">
<title>100</title>
<path fill="none" stroke="#d85656" stroke-width="2" stroke-dasharray="5,2" d="M1902,-252C1902,-252 1806,-252 1806,-252 1800,-252 1794,-246 1794,-240 1794,-240 1794,-228 1794,-228 1794,-222 1800,-216 1806,-216 1806,-216 1902,-216 1902,-216 1908,-216 1914,-222 1914,-228 1914,-228 1914,-240 1914,-240 1914,-246 1908,-252 1902,-252"/>
<text text-anchor="middle" x="1854" y="-237" font-family="sans" font-size="10.00" fill="#000000">prefetch</text>
<text text-anchor="middle" x="1854" y="-226" font-family="sans" font-size="10.00" fill="#000000">sample: SRR9326194</text>
</g>
<!-- 100&#45;&gt;71 -->
<g id="edge72" class="edge">
<title>100&#45;&gt;71</title>
<path fill="none" stroke="#c0c0c0" stroke-width="2" d="M1854,-215.8314C1854,-208.131 1854,-198.9743 1854,-190.4166"/>
<polygon fill="#c0c0c0" stroke="#c0c0c0" stroke-width="2" points="1857.5001,-190.4132 1854,-180.4133 1850.5001,-190.4133 1857.5001,-190.4132"/>
</g>
<!-- 101 -->
<g id="node102" class="node">
<title>101</title>
<path fill="none" stroke="#d85656" stroke-width="2" stroke-dasharray="5,2" d="M2040,-252C2040,-252 1944,-252 1944,-252 1938,-252 1932,-246 1932,-240 1932,-240 1932,-228 1932,-228 1932,-222 1938,-216 1944,-216 1944,-216 2040,-216 2040,-216 2046,-216 2052,-222 2052,-228 2052,-228 2052,-240 2052,-240 2052,-246 2046,-252 2040,-252"/>
<text text-anchor="middle" x="1992" y="-237" font-family="sans" font-size="10.00" fill="#000000">prefetch</text>
<text text-anchor="middle" x="1992" y="-226" font-family="sans" font-size="10.00" fill="#000000">sample: SRR9326210</text>
</g>
<!-- 101&#45;&gt;72 -->
<g id="edge73" class="edge">
<title>101&#45;&gt;72</title>
<path fill="none" stroke="#c0c0c0" stroke-width="2" d="M1992,-215.8314C1992,-208.131 1992,-198.9743 1992,-190.4166"/>
<polygon fill="#c0c0c0" stroke="#c0c0c0" stroke-width="2" points="1995.5001,-190.4132 1992,-180.4133 1988.5001,-190.4133 1995.5001,-190.4132"/>
</g>
<!-- 102 -->
<g id="node103" class="node">
<title>102</title>
<path fill="none" stroke="#d85656" stroke-width="2" d="M2178,-252C2178,-252 2082,-252 2082,-252 2076,-252 2070,-246 2070,-240 2070,-240 2070,-228 2070,-228 2070,-222 2076,-216 2082,-216 2082,-216 2178,-216 2178,-216 2184,-216 2190,-222 2190,-228 2190,-228 2190,-240 2190,-240 2190,-246 2184,-252 2178,-252"/>
<text text-anchor="middle" x="2130" y="-237" font-family="sans" font-size="10.00" fill="#000000">prefetch</text>
<text text-anchor="middle" x="2130" y="-226" font-family="sans" font-size="10.00" fill="#000000">sample: SRR9326202</text>
</g>
<!-- 102&#45;&gt;73 -->
<g id="edge74" class="edge">
<title>102&#45;&gt;73</title>
<path fill="none" stroke="#c0c0c0" stroke-width="2" d="M2130,-215.8314C2130,-208.131 2130,-198.9743 2130,-190.4166"/>
<polygon fill="#c0c0c0" stroke="#c0c0c0" stroke-width="2" points="2133.5001,-190.4132 2130,-180.4133 2126.5001,-190.4133 2133.5001,-190.4132"/>
</g>
<!-- 103 -->
<g id="node104" class="node">
<title>103</title>
<path fill="none" stroke="#d85656" stroke-width="2" stroke-dasharray="5,2" d="M2316,-252C2316,-252 2220,-252 2220,-252 2214,-252 2208,-246 2208,-240 2208,-240 2208,-228 2208,-228 2208,-222 2214,-216 2220,-216 2220,-216 2316,-216 2316,-216 2322,-216 2328,-222 2328,-228 2328,-228 2328,-240 2328,-240 2328,-246 2322,-252 2316,-252"/>
<text text-anchor="middle" x="2268" y="-237" font-family="sans" font-size="10.00" fill="#000000">prefetch</text>
<text text-anchor="middle" x="2268" y="-226" font-family="sans" font-size="10.00" fill="#000000">sample: SRR9326208</text>
</g>
<!-- 103&#45;&gt;74 -->
<g id="edge75" class="edge">
<title>103&#45;&gt;74</title>
<path fill="none" stroke="#c0c0c0" stroke-width="2" d="M2268,-215.8314C2268,-208.131 2268,-198.9743 2268,-190.4166"/>
<polygon fill="#c0c0c0" stroke="#c0c0c0" stroke-width="2" points="2271.5001,-190.4132 2268,-180.4133 2264.5001,-190.4133 2271.5001,-190.4132"/>
</g>
<!-- 104 -->
<g id="node105" class="node">
<title>104</title>
<path fill="none" stroke="#d85656" stroke-width="2" d="M2454,-252C2454,-252 2358,-252 2358,-252 2352,-252 2346,-246 2346,-240 2346,-240 2346,-228 2346,-228 2346,-222 2352,-216 2358,-216 2358,-216 2454,-216 2454,-216 2460,-216 2466,-222 2466,-228 2466,-228 2466,-240 2466,-240 2466,-246 2460,-252 2454,-252"/>
<text text-anchor="middle" x="2406" y="-237" font-family="sans" font-size="10.00" fill="#000000">prefetch</text>
<text text-anchor="middle" x="2406" y="-226" font-family="sans" font-size="10.00" fill="#000000">sample: SRR9326206</text>
</g>
<!-- 104&#45;&gt;75 -->
<g id="edge76" class="edge">
<title>104&#45;&gt;75</title>
<path fill="none" stroke="#c0c0c0" stroke-width="2" d="M2406,-215.8314C2406,-208.131 2406,-198.9743 2406,-190.4166"/>
<polygon fill="#c0c0c0" stroke="#c0c0c0" stroke-width="2" points="2409.5001,-190.4132 2406,-180.4133 2402.5001,-190.4133 2409.5001,-190.4132"/>
</g>
<!-- 105 -->
<g id="node106" class="node">
<title>105</title>
<path fill="none" stroke="#d85656" stroke-width="2" stroke-dasharray="5,2" d="M2592,-252C2592,-252 2496,-252 2496,-252 2490,-252 2484,-246 2484,-240 2484,-240 2484,-228 2484,-228 2484,-222 2490,-216 2496,-216 2496,-216 2592,-216 2592,-216 2598,-216 2604,-222 2604,-228 2604,-228 2604,-240 2604,-240 2604,-246 2598,-252 2592,-252"/>
<text text-anchor="middle" x="2544" y="-237" font-family="sans" font-size="10.00" fill="#000000">prefetch</text>
<text text-anchor="middle" x="2544" y="-226" font-family="sans" font-size="10.00" fill="#000000">sample: SRR9326199</text>
</g>
<!-- 105&#45;&gt;76 -->
<g id="edge77" class="edge">
<title>105&#45;&gt;76</title>
<path fill="none" stroke="#c0c0c0" stroke-width="2" d="M2544,-215.8314C2544,-208.131 2544,-198.9743 2544,-190.4166"/>
<polygon fill="#c0c0c0" stroke="#c0c0c0" stroke-width="2" points="2547.5001,-190.4132 2544,-180.4133 2540.5001,-190.4133 2547.5001,-190.4132"/>
</g>
<!-- 106 -->
<g id="node107" class="node">
<title>106</title>
<path fill="none" stroke="#d85656" stroke-width="2" stroke-dasharray="5,2" d="M2730,-252C2730,-252 2634,-252 2634,-252 2628,-252 2622,-246 2622,-240 2622,-240 2622,-228 2622,-228 2622,-222 2628,-216 2634,-216 2634,-216 2730,-216 2730,-216 2736,-216 2742,-222 2742,-228 2742,-228 2742,-240 2742,-240 2742,-246 2736,-252 2730,-252"/>
<text text-anchor="middle" x="2682" y="-237" font-family="sans" font-size="10.00" fill="#000000">prefetch</text>
<text text-anchor="middle" x="2682" y="-226" font-family="sans" font-size="10.00" fill="#000000">sample: SRR9326195</text>
</g>
<!-- 106&#45;&gt;77 -->
<g id="edge78" class="edge">
<title>106&#45;&gt;77</title>
<path fill="none" stroke="#c0c0c0" stroke-width="2" d="M2682,-215.8314C2682,-208.131 2682,-198.9743 2682,-190.4166"/>
<polygon fill="#c0c0c0" stroke="#c0c0c0" stroke-width="2" points="2685.5001,-190.4132 2682,-180.4133 2678.5001,-190.4133 2685.5001,-190.4132"/>
</g>
<!-- 107 -->
<g id="node108" class="node">
<title>107</title>
<path fill="none" stroke="#d85656" stroke-width="2" stroke-dasharray="5,2" d="M2868,-252C2868,-252 2772,-252 2772,-252 2766,-252 2760,-246 2760,-240 2760,-240 2760,-228 2760,-228 2760,-222 2766,-216 2772,-216 2772,-216 2868,-216 2868,-216 2874,-216 2880,-222 2880,-228 2880,-228 2880,-240 2880,-240 2880,-246 2874,-252 2868,-252"/>
<text text-anchor="middle" x="2820" y="-237" font-family="sans" font-size="10.00" fill="#000000">prefetch</text>
<text text-anchor="middle" x="2820" y="-226" font-family="sans" font-size="10.00" fill="#000000">sample: SRR9326209</text>
</g>
<!-- 107&#45;&gt;78 -->
<g id="edge79" class="edge">
<title>107&#45;&gt;78</title>
<path fill="none" stroke="#c0c0c0" stroke-width="2" d="M2820,-215.8314C2820,-208.131 2820,-198.9743 2820,-190.4166"/>
<polygon fill="#c0c0c0" stroke="#c0c0c0" stroke-width="2" points="2823.5001,-190.4132 2820,-180.4133 2816.5001,-190.4133 2823.5001,-190.4132"/>
</g>
<!-- 108 -->
<g id="node109" class="node">
<title>108</title>
<path fill="none" stroke="#d85656" stroke-width="2" stroke-dasharray="5,2" d="M3006,-252C3006,-252 2910,-252 2910,-252 2904,-252 2898,-246 2898,-240 2898,-240 2898,-228 2898,-228 2898,-222 2904,-216 2910,-216 2910,-216 3006,-216 3006,-216 3012,-216 3018,-222 3018,-228 3018,-228 3018,-240 3018,-240 3018,-246 3012,-252 3006,-252"/>
<text text-anchor="middle" x="2958" y="-237" font-family="sans" font-size="10.00" fill="#000000">prefetch</text>
<text text-anchor="middle" x="2958" y="-226" font-family="sans" font-size="10.00" fill="#000000">sample: SRR9326182</text>
</g>
<!-- 108&#45;&gt;79 -->
<g id="edge80" class="edge">
<title>108&#45;&gt;79</title>
<path fill="none" stroke="#c0c0c0" stroke-width="2" d="M2958,-215.8314C2958,-208.131 2958,-198.9743 2958,-190.4166"/>
<polygon fill="#c0c0c0" stroke="#c0c0c0" stroke-width="2" points="2961.5001,-190.4132 2958,-180.4133 2954.5001,-190.4133 2961.5001,-190.4132"/>
</g>
<!-- 109 -->
<g id="node110" class="node">
<title>109</title>
<path fill="none" stroke="#d85656" stroke-width="2" stroke-dasharray="5,2" d="M3144,-252C3144,-252 3048,-252 3048,-252 3042,-252 3036,-246 3036,-240 3036,-240 3036,-228 3036,-228 3036,-222 3042,-216 3048,-216 3048,-216 3144,-216 3144,-216 3150,-216 3156,-222 3156,-228 3156,-228 3156,-240 3156,-240 3156,-246 3150,-252 3144,-252"/>
<text text-anchor="middle" x="3096" y="-237" font-family="sans" font-size="10.00" fill="#000000">prefetch</text>
<text text-anchor="middle" x="3096" y="-226" font-family="sans" font-size="10.00" fill="#000000">sample: SRR9326207</text>
</g>
<!-- 109&#45;&gt;80 -->
<g id="edge81" class="edge">
<title>109&#45;&gt;80</title>
<path fill="none" stroke="#c0c0c0" stroke-width="2" d="M3096,-215.8314C3096,-208.131 3096,-198.9743 3096,-190.4166"/>
<polygon fill="#c0c0c0" stroke="#c0c0c0" stroke-width="2" points="3099.5001,-190.4132 3096,-180.4133 3092.5001,-190.4133 3099.5001,-190.4132"/>
</g>
<!-- 110 -->
<g id="node111" class="node">
<title>110</title>
<path fill="none" stroke="#d85656" stroke-width="2" stroke-dasharray="5,2" d="M3282,-252C3282,-252 3186,-252 3186,-252 3180,-252 3174,-246 3174,-240 3174,-240 3174,-228 3174,-228 3174,-222 3180,-216 3186,-216 3186,-216 3282,-216 3282,-216 3288,-216 3294,-222 3294,-228 3294,-228 3294,-240 3294,-240 3294,-246 3288,-252 3282,-252"/>
<text text-anchor="middle" x="3234" y="-237" font-family="sans" font-size="10.00" fill="#000000">prefetch</text>
<text text-anchor="middle" x="3234" y="-226" font-family="sans" font-size="10.00" fill="#000000">sample: SRR9326196</text>
</g>
<!-- 110&#45;&gt;81 -->
<g id="edge82" class="edge">
<title>110&#45;&gt;81</title>
<path fill="none" stroke="#c0c0c0" stroke-width="2" d="M3234,-215.8314C3234,-208.131 3234,-198.9743 3234,-190.4166"/>
<polygon fill="#c0c0c0" stroke="#c0c0c0" stroke-width="2" points="3237.5001,-190.4132 3234,-180.4133 3230.5001,-190.4133 3237.5001,-190.4132"/>
</g>
<!-- 111 -->
<g id="node112" class="node">
<title>111</title>
<path fill="none" stroke="#d85656" stroke-width="2" stroke-dasharray="5,2" d="M3420,-252C3420,-252 3324,-252 3324,-252 3318,-252 3312,-246 3312,-240 3312,-240 3312,-228 3312,-228 3312,-222 3318,-216 3324,-216 3324,-216 3420,-216 3420,-216 3426,-216 3432,-222 3432,-228 3432,-228 3432,-240 3432,-240 3432,-246 3426,-252 3420,-252"/>
<text text-anchor="middle" x="3372" y="-237" font-family="sans" font-size="10.00" fill="#000000">prefetch</text>
<text text-anchor="middle" x="3372" y="-226" font-family="sans" font-size="10.00" fill="#000000">sample: SRR9326203</text>
</g>
<!-- 111&#45;&gt;82 -->
<g id="edge83" class="edge">
<title>111&#45;&gt;82</title>
<path fill="none" stroke="#c0c0c0" stroke-width="2" d="M3372,-215.8314C3372,-208.131 3372,-198.9743 3372,-190.4166"/>
<polygon fill="#c0c0c0" stroke="#c0c0c0" stroke-width="2" points="3375.5001,-190.4132 3372,-180.4133 3368.5001,-190.4133 3375.5001,-190.4132"/>
</g>
<!-- 112 -->
<g id="node113" class="node">
<title>112</title>
<path fill="none" stroke="#d85656" stroke-width="2" stroke-dasharray="5,2" d="M3558,-252C3558,-252 3462,-252 3462,-252 3456,-252 3450,-246 3450,-240 3450,-240 3450,-228 3450,-228 3450,-222 3456,-216 3462,-216 3462,-216 3558,-216 3558,-216 3564,-216 3570,-222 3570,-228 3570,-228 3570,-240 3570,-240 3570,-246 3564,-252 3558,-252"/>
<text text-anchor="middle" x="3510" y="-237" font-family="sans" font-size="10.00" fill="#000000">prefetch</text>
<text text-anchor="middle" x="3510" y="-226" font-family="sans" font-size="10.00" fill="#000000">sample: SRR9326204</text>
</g>
<!-- 112&#45;&gt;83 -->
<g id="edge84" class="edge">
<title>112&#45;&gt;83</title>
<path fill="none" stroke="#c0c0c0" stroke-width="2" d="M3510,-215.8314C3510,-208.131 3510,-198.9743 3510,-190.4166"/>
<polygon fill="#c0c0c0" stroke="#c0c0c0" stroke-width="2" points="3513.5001,-190.4132 3510,-180.4133 3506.5001,-190.4133 3513.5001,-190.4132"/>
</g>
<!-- 113 -->
<g id="node114" class="node">
<title>113</title>
<path fill="none" stroke="#d85656" stroke-width="2" stroke-dasharray="5,2" d="M3696,-252C3696,-252 3600,-252 3600,-252 3594,-252 3588,-246 3588,-240 3588,-240 3588,-228 3588,-228 3588,-222 3594,-216 3600,-216 3600,-216 3696,-216 3696,-216 3702,-216 3708,-222 3708,-228 3708,-228 3708,-240 3708,-240 3708,-246 3702,-252 3696,-252"/>
<text text-anchor="middle" x="3648" y="-237" font-family="sans" font-size="10.00" fill="#000000">prefetch</text>
<text text-anchor="middle" x="3648" y="-226" font-family="sans" font-size="10.00" fill="#000000">sample: SRR9326189</text>
</g>
<!-- 113&#45;&gt;84 -->
<g id="edge85" class="edge">
<title>113&#45;&gt;84</title>
<path fill="none" stroke="#c0c0c0" stroke-width="2" d="M3648,-215.8314C3648,-208.131 3648,-198.9743 3648,-190.4166"/>
<polygon fill="#c0c0c0" stroke="#c0c0c0" stroke-width="2" points="3651.5001,-190.4132 3648,-180.4133 3644.5001,-190.4133 3651.5001,-190.4132"/>
</g>
<!-- 114 -->
<g id="node115" class="node">
<title>114</title>
<path fill="none" stroke="#d85656" stroke-width="2" stroke-dasharray="5,2" d="M3834,-252C3834,-252 3738,-252 3738,-252 3732,-252 3726,-246 3726,-240 3726,-240 3726,-228 3726,-228 3726,-222 3732,-216 3738,-216 3738,-216 3834,-216 3834,-216 3840,-216 3846,-222 3846,-228 3846,-228 3846,-240 3846,-240 3846,-246 3840,-252 3834,-252"/>
<text text-anchor="middle" x="3786" y="-237" font-family="sans" font-size="10.00" fill="#000000">prefetch</text>
<text text-anchor="middle" x="3786" y="-226" font-family="sans" font-size="10.00" fill="#000000">sample: SRR9326191</text>
</g>
<!-- 114&#45;&gt;85 -->
<g id="edge86" class="edge">
<title>114&#45;&gt;85</title>
<path fill="none" stroke="#c0c0c0" stroke-width="2" d="M3786,-215.8314C3786,-208.131 3786,-198.9743 3786,-190.4166"/>
<polygon fill="#c0c0c0" stroke="#c0c0c0" stroke-width="2" points="3789.5001,-190.4132 3786,-180.4133 3782.5001,-190.4133 3789.5001,-190.4132"/>
</g>
<!-- 115 -->
<g id="node116" class="node">
<title>115</title>
<path fill="none" stroke="#d85656" stroke-width="2" stroke-dasharray="5,2" d="M3972,-252C3972,-252 3876,-252 3876,-252 3870,-252 3864,-246 3864,-240 3864,-240 3864,-228 3864,-228 3864,-222 3870,-216 3876,-216 3876,-216 3972,-216 3972,-216 3978,-216 3984,-222 3984,-228 3984,-228 3984,-240 3984,-240 3984,-246 3978,-252 3972,-252"/>
<text text-anchor="middle" x="3924" y="-237" font-family="sans" font-size="10.00" fill="#000000">prefetch</text>
<text text-anchor="middle" x="3924" y="-226" font-family="sans" font-size="10.00" fill="#000000">sample: SRR9326197</text>
</g>
<!-- 115&#45;&gt;86 -->
<g id="edge87" class="edge">
<title>115&#45;&gt;86</title>
<path fill="none" stroke="#c0c0c0" stroke-width="2" d="M3924,-215.8314C3924,-208.131 3924,-198.9743 3924,-190.4166"/>
<polygon fill="#c0c0c0" stroke="#c0c0c0" stroke-width="2" points="3927.5001,-190.4132 3924,-180.4133 3920.5001,-190.4133 3927.5001,-190.4132"/>
</g>
</g>
</svg>
